<?xml version="1.0" encoding="UTF-8"?>
<svg version="1.1" xmlns="http://www.w3.org/2000/svg" width="577" height="577">
<path d="M0 0 C1.11205811 -0.00637985 2.22411621 -0.0127597 3.36987305 -0.01933289 C5.18998901 -0.02100212 5.18998901 -0.02100212 7.046875 -0.02270508 C8.28928955 -0.02603348 9.5317041 -0.02936188 10.81176758 -0.03279114 C13.45153357 -0.03786841 16.09119676 -0.04063027 18.73095703 -0.04003906 C21.42731479 -0.03995811 24.12350158 -0.04684413 26.81982422 -0.06054688 C30.70806045 -0.07894396 34.59609947 -0.0837798 38.484375 -0.08520508 C39.6815918 -0.09239059 40.87880859 -0.09957611 42.11230469 -0.10697937 C47.9364033 -0.09122365 53.30092816 0.17742237 58.94671631 1.66360474 C61.93444296 2.44141112 64.99344421 2.76923904 68.046875 3.20776367 C112.74416803 10.6127147 154.44882085 33.9187832 186.796875 65.14526367 C187.38678223 65.71325684 187.97668945 66.28125 188.58447266 66.86645508 C202.6974743 80.52651203 214.45825127 95.4311553 224.796875 112.14526367 C225.27640625 112.88647461 225.7559375 113.62768555 226.25 114.39135742 C231.59722702 122.86759366 235.68759853 132.02382746 239.796875 141.14526367 C240.2304834 142.10625977 240.2304834 142.10625977 240.67285156 143.08666992 C247.73010506 159.00265674 252.56387962 176.19781071 255.19140625 193.39135742 C255.62135595 196.05704554 256.13995848 198.4592031 256.8203125 201.04785156 C258.18651542 207.15999588 258.06477247 213.22156707 258.02734375 219.45776367 C258.02665642 221.33286621 258.02665642 221.33286621 258.0259552 223.24584961 C258.02218214 226.53997816 258.00923324 229.83390842 257.99249268 233.12799072 C257.9816198 235.82994138 257.98202559 238.53184166 257.98263073 241.23381042 C257.98229464 244.45430974 257.97347136 247.67477742 257.96484375 250.89526367 C257.96373093 252.10867432 257.9626181 253.32208496 257.96147156 254.57226562 C257.95509171 255.68432373 257.94871185 256.79638184 257.94213867 257.94213867 C257.93832687 258.92537109 257.93451508 259.90860352 257.93058777 260.92163086 C257.796875 263.14526367 257.796875 263.14526367 256.796875 264.14526367 C256.49968724 266.16998893 256.20880448 268.19582235 255.94824219 270.22558594 C253.47036648 289.28987604 247.87395503 307.32012702 240.796875 325.14526367 C240.54969727 325.77867676 240.30251953 326.41208984 240.04785156 327.06469727 C236.168206 336.93411112 231.19579523 346.04726656 225.796875 355.14526367 C225.23226562 356.10045898 224.66765625 357.0556543 224.0859375 358.03979492 C216.47023806 370.42923767 207.49632893 381.7910979 197.48046875 392.30932617 C195.25570508 394.66038647 193.13466487 397.04900219 191.046875 399.52026367 C188.22945356 402.77322852 185.17906025 405.5798113 181.8984375 408.36010742 C179.65561297 410.26525762 177.47817365 412.23260149 175.296875 414.20776367 C164.11960892 424.14526367 164.11960892 424.14526367 160.796875 424.14526367 C160.796875 424.80526367 160.796875 425.46526367 160.796875 426.14526367 C158.62061041 427.71042818 156.4563102 429.12661965 154.171875 430.52026367 C153.47054443 430.95290527 152.76921387 431.38554687 152.04663086 431.83129883 C145.9125144 435.56487851 139.6565442 439.07041738 133.359375 442.52026367 C132.44913574 443.01961426 131.53889648 443.51896484 130.60107422 444.03344727 C120.63496952 449.42667603 110.49716461 453.43612967 99.796875 457.14526367 C98.6315625 457.5706543 97.46625 457.99604492 96.265625 458.43432617 C81.26766519 463.74882062 65.58498107 466.42719944 49.796875 468.14526367 C48.80558594 468.25741211 47.81429688 468.36956055 46.79296875 468.48510742 C0.2945681 472.91063969 -50.05668617 463.20733193 -89.98828125 438.45776367 C-94.15511137 435.98853101 -97.43465768 435.3883641 -102.203125 436.14526367 C-104.46722803 437.78460315 -104.46722803 437.78460315 -106.72563171 439.96386719 C-107.60886801 440.7856546 -108.4921043 441.60744202 -109.40210533 442.45413208 C-114.26442895 447.12569967 -119.03600899 451.88222203 -123.78051758 456.67260742 C-124.90348856 457.80242731 -126.02672124 458.93198715 -127.15019226 460.06130981 C-129.55004943 462.47439067 -131.94845158 464.88890484 -134.34580421 467.30447388 C-138.14758832 471.13436287 -141.9550138 474.95861054 -145.76359558 478.78173828 C-147.07376901 480.09705412 -148.38393531 481.41237705 -149.69409466 482.72770691 C-150.6775378 483.71502839 -150.6775378 483.71502839 -151.68084848 484.72229576 C-160.53096035 493.60829507 -169.37622965 502.49907344 -178.21118164 511.40014648 C-184.19287429 517.42651502 -190.18181119 523.4455842 -196.17885512 529.45667744 C-199.3419066 532.62774973 -202.50122055 535.80234764 -205.65155983 538.98605347 C-208.61671791 541.98256851 -211.59135123 544.9693554 -214.57309151 547.94936752 C-215.65643901 549.03538039 -216.73642686 550.12475852 -217.81248856 551.21799088 C-227.88307873 561.44206977 -238.63795927 569.94075478 -252.203125 575.14526367 C-253.04101562 575.50491211 -253.87890625 575.86456055 -254.7421875 576.23510742 C-266.04343803 579.20710672 -282.04429651 579.70807194 -292.515625 573.95776367 C-294.88816219 572.50664212 -297.05106114 570.9047603 -299.203125 569.14526367 C-299.78368652 568.67362793 -300.36424805 568.20199219 -300.96240234 567.71606445 C-309.86412181 560.20820853 -318.04835442 551.16918795 -319.57421875 539.24536133 C-321.27266999 517.80241437 -316.55373192 502.77438811 -303.203125 486.14526367 C-299.26595289 481.60989229 -294.9760661 477.41783447 -290.70092773 473.20483398 C-289.47854571 471.9852262 -288.25706056 470.76471895 -287.03639221 469.543396 C-283.7607031 466.27079438 -280.47299137 463.01052718 -277.18290973 459.75240421 C-273.72986155 456.32834043 -270.28877012 452.89230217 -266.84645081 449.4574585 C-260.34279144 442.97130319 -253.82942394 436.49499531 -247.31203467 430.02263904 C-237.72344316 420.49957738 -228.1478171 410.96349143 -218.57445621 401.42512131 C-217.87247008 400.72570459 -217.17048395 400.02628787 -216.44722551 399.3056767 C-215.0483166 397.91186466 -213.64943996 396.51802022 -212.25059658 395.12414241 C-208.15307024 391.04187934 -204.05202806 386.96318977 -199.94793022 382.88753366 C-197.40624445 380.36281383 -194.8664698 377.83617745 -192.32707787 375.3091507 C-191.146379 374.13513734 -189.96480089 372.9620075 -188.78229904 371.78981018 C-187.17379901 370.19516509 -185.5683484 368.59751136 -183.96360779 366.99908447 C-183.06309913 366.10469288 -182.16259047 365.21030128 -181.23479366 364.28880692 C-178.43500099 361.33484264 -177.79180994 359.3289693 -177.859375 355.23706055 C-178.57507838 350.88184285 -181.05111046 347.18799603 -183.203125 343.39526367 C-211.79770422 290.79870726 -219.68209552 226.83742666 -202.98291016 169.04931641 C-192.66905937 134.77206967 -175.43792937 103.16470978 -150.8671875 76.99682617 C-148.36415156 74.31762348 -145.93631894 71.58619905 -143.515625 68.83276367 C-139.67187732 64.56117835 -135.61672977 60.81412163 -131.203125 57.14526367 C-129.91341797 56.0237793 -129.91341797 56.0237793 -128.59765625 54.87963867 C-118.35184098 46.08565957 -107.28805331 38.29806629 -95.59765625 31.53198242 C-93.89018467 30.54315304 -92.20178959 29.52107357 -90.52734375 28.47729492 C-82.72242521 23.69295379 -74.62777163 20.2431243 -66.13061523 16.9206543 C-64.40077144 16.22477287 -62.69800626 15.46245371 -61 14.69213867 C-55.59466122 12.35925178 -49.90303998 10.81011088 -44.265625 9.14526367 C-43.06446045 8.79004639 -41.8632959 8.4348291 -40.62573242 8.06884766 C-30.42907185 5.10892551 -20.39409513 2.85672384 -9.83984375 1.64135742 C-5.96458538 1.1127239 -4.05838884 0.01573357 0 0 Z M-59.203125 83.14526367 C-60.12351562 83.65702148 -61.04390625 84.1687793 -61.9921875 84.69604492 C-72.07858745 90.48869877 -81.24877195 97.7579224 -90.203125 105.14526367 C-91.27046875 106.02504883 -91.27046875 106.02504883 -92.359375 106.92260742 C-97.13029836 110.96871743 -101.1955842 115.35257202 -105.203125 120.14526367 C-106.39808594 121.52584961 -106.39808594 121.52584961 -107.6171875 122.93432617 C-113.09768994 129.34204353 -117.8618894 135.90628024 -122.203125 143.14526367 C-122.69167969 143.90838867 -123.18023437 144.67151367 -123.68359375 145.45776367 C-145.85157607 180.64126376 -151.10151937 221.5094006 -146.203125 262.14526367 C-146.12255859 262.83313965 -146.04199219 263.52101563 -145.95898438 264.22973633 C-142.87609637 288.6609972 -132.08956183 313.60681534 -117.203125 333.14526367 C-116.56375 334.04760742 -115.924375 334.94995117 -115.265625 335.87963867 C-107.03563757 347.31690061 -97.32515541 358.43363917 -86.203125 367.14526367 C-85.39633301 367.78794189 -85.39633301 367.78794189 -84.57324219 368.44360352 C-55.3210549 391.62414432 -20.57997837 404.72813179 16.796875 406.14526367 C17.86421875 406.18651367 18.9315625 406.22776367 20.03125 406.27026367 C66.52065219 407.14330409 109.62927958 389.6365056 143.609375 358.27026367 C146.90884097 355.06506815 149.88606224 351.70483746 152.796875 348.14526367 C153.24853027 347.60063477 153.70018555 347.05600586 154.16552734 346.49487305 C160.35118856 339.02194171 166.07539443 331.64665788 170.796875 323.14526367 C171.34601563 322.24936523 171.89515625 321.3534668 172.4609375 320.43041992 C186.23143342 297.83346075 194.82983591 270.7076479 195 244.15698242 C195.00701431 243.42033356 195.01402863 242.68368469 195.02125549 241.92471313 C195.03865991 239.56066707 195.04510754 237.19687145 195.046875 234.83276367 C195.04754974 234.02535736 195.04822449 233.21795105 195.04891968 232.38607788 C195.02451667 214.02520784 192.59399686 197.58369076 186.796875 180.14526367 C186.47517334 179.17169922 186.47517334 179.17169922 186.14697266 178.1784668 C183.82176457 171.22226342 181.24755282 164.61032671 177.796875 158.14526367 C177.02592751 156.54115187 176.25510238 154.93698125 175.484375 153.33276367 C158.45806702 119.48652721 126.86209295 90.48794516 91.796875 76.14526367 C91.07121338 75.84257568 90.34555176 75.5398877 89.59790039 75.22802734 C80.22062723 71.37819822 70.61627184 68.62692942 60.796875 66.14526367 C60.06452637 65.96012207 59.33217773 65.77498047 58.57763672 65.58422852 C20.43106496 56.54120997 -25.53092292 63.64864296 -59.203125 83.14526367 Z " fill="#FFFFFF" transform="translate(319.203125,-0.145263671875)"/>
<path d="M0 0 C1.19906982 -0.0095874 2.39813965 -0.0191748 3.63354492 -0.02905273 C17.79646977 0.02399193 30.81391878 2.19631898 44.3125 6.4375 C45.54419922 6.79908203 46.77589844 7.16066406 48.04492188 7.53320312 C56.67196145 10.20643512 65.60095115 13.70421353 71 21.375 C74.59708872 28.26942005 76.55358953 34.44027626 74.28515625 42.20703125 C71.31271576 49.94129182 66.19677247 55.84700013 58.8125 59.625 C50.1370473 61.26187787 42.97647322 60.40484951 34.73828125 57.40234375 C8.79759036 48.17133795 -18.01277721 49.79412147 -43.1875 60.5625 C-57.05735031 67.23749543 -69.95075172 76.06801504 -79.5 88.25 C-80.13421875 89.03632813 -80.7684375 89.82265625 -81.421875 90.6328125 C-86.02086062 96.6043636 -89.49830214 102.80618168 -92.71069336 109.59179688 C-96.97169328 118.56797523 -101.53273103 123.70391935 -110.5 128.25 C-116.1253233 130.14527022 -122.04899925 129.36933472 -127.5 127.25 C-134.98259437 123.06239196 -139.890196 118.77278265 -142.8125 110.5625 C-145.78988384 95.75905886 -137.46962374 82.30095125 -129.5625 70.375 C-125.23726488 64.03419372 -120.51704576 58.05921088 -115.5 52.25 C-114.82066406 51.44820312 -114.14132813 50.64640625 -113.44140625 49.8203125 C-109.13290758 44.83152457 -104.61565868 40.4032212 -99.5 36.25 C-98.55382812 35.47785156 -97.60765625 34.70570312 -96.6328125 33.91015625 C-68.78831129 11.61456703 -35.57376012 0.24986948 0 0 Z " fill="#FFFFFF" transform="translate(353.5,92.75)"/>
</svg>
