<?xml version="1.0" encoding="UTF-8"?>
<svg version="1.1" xmlns="http://www.w3.org/2000/svg" width="585" height="438">
<path d="M0 0 C1.73219968 -0.00532769 3.46439474 -0.01239466 5.19658101 -0.02104706 C9.94796063 -0.03967191 14.69902854 -0.0333699 19.45042109 -0.02289402 C24.5780183 -0.01590156 29.70555151 -0.03190037 34.83312988 -0.04489136 C44.87523516 -0.06653618 54.91722713 -0.06640314 64.95934807 -0.05826581 C73.12174534 -0.05196626 81.28410957 -0.05310245 89.4465065 -0.05953789 C91.18902736 -0.06089037 91.18902736 -0.06089037 92.96675066 -0.06227018 C95.32670108 -0.06412138 97.6866515 -0.06598394 100.04660191 -0.06785773 C122.17861331 -0.08443807 144.31056098 -0.07571519 166.44256856 -0.05887216 C186.68852101 -0.04417697 206.93432504 -0.05880068 227.18025838 -0.08764232 C247.97054428 -0.11703877 268.76076169 -0.12800774 289.55106747 -0.11846012 C291.9029529 -0.11743757 294.25483834 -0.11644296 296.60672379 -0.11547661 C298.34246272 -0.11476202 298.34246272 -0.11476202 300.11326709 -0.114033 C308.26399276 -0.1118691 316.41465356 -0.12167179 324.56536484 -0.13624763 C334.50125378 -0.15376802 344.43695353 -0.1536578 354.37283503 -0.13089598 C359.44146231 -0.1197509 364.50975622 -0.11659749 369.57836914 -0.13519669 C374.22088888 -0.15201299 378.86278477 -0.1456347 383.50526418 -0.1209799 C385.18217434 -0.11609998 386.85913494 -0.11960312 388.53600286 -0.13246734 C397.73384105 -0.19792148 405.25813442 0.176926 413.16043091 5.5146637 C413.16043091 6.1746637 413.16043091 6.8346637 413.16043091 7.5146637 C413.73921997 7.76731995 414.31800903 8.0199762 414.91433716 8.2802887 C422.75003227 12.58651418 426.3997027 20.37527478 429.151968 28.4956398 C431.13244219 35.58483536 430.81284937 42.87103248 430.72805786 50.16847229 C430.72664403 51.8946529 430.7274459 53.6208365 430.73027039 55.34701538 C430.73169288 59.98887041 430.70249438 64.63006676 430.6674006 69.27177 C430.63594042 74.13904616 430.63319097 79.00634085 430.62727356 83.873703 C430.6117925 93.07090759 430.57084243 102.2678116 430.52052611 111.4648844 C430.46445311 121.94380626 430.43710116 132.42274321 430.41204894 142.90177798 C430.35992093 164.43957369 430.27209131 185.97709968 430.16043091 207.5146637 C430.91737747 207.64480865 431.67432404 207.77495361 432.45420837 207.90904236 C433.44627792 208.08359955 434.43834747 208.25815674 435.46047974 208.43800354 C436.4443013 208.6093985 437.42812286 208.78079346 438.4417572 208.9573822 C448.10095646 210.93735243 456.26718541 217.75424944 461.69168091 225.7802887 C466.04649816 233.22398796 467.46422297 239.87402144 467.38748169 248.38746643 C467.38777374 249.24680283 467.3880658 250.10613922 467.3883667 250.99151611 C467.38698177 253.81053532 467.37146022 256.62928484 467.35574341 259.44825745 C467.3520103 261.41123307 467.34916473 263.37421056 467.34716797 265.33718872 C467.33955498 270.48776959 467.3199266 275.63823653 467.29776001 280.78877258 C467.27725121 286.0509029 467.2681555 291.31305175 467.25808716 296.57521057 C467.23667845 306.88841149 467.20257078 317.2015281 467.16043091 327.5146637 C468.0408606 327.46825745 468.92129028 327.4218512 469.82839966 327.3740387 C470.98984497 327.33794495 472.15129028 327.3018512 473.34793091 327.2646637 C474.4964856 327.21825745 475.64504028 327.1718512 476.82839966 327.1240387 C480.8670026 327.59749742 482.43275643 328.52531928 485.16043091 331.5146637 C485.80207825 334.01881409 485.80207825 334.01881409 485.82327271 336.86231995 C485.85175545 338.46418152 485.85175545 338.46418152 485.8808136 340.09840393 C485.87033745 341.82039001 485.87033745 341.82039001 485.85964966 343.5771637 C485.86680496 344.76060364 485.87396027 345.94404358 485.8813324 347.16334534 C485.88911517 349.66488388 485.88408527 352.16649023 485.86721802 354.66798401 C485.84799947 358.50098948 485.8873658 362.33036844 485.93191528 366.1631012 C485.93220564 368.59279086 485.92906579 371.02248386 485.92214966 373.4521637 C485.9374321 374.60015442 485.95271454 375.74814514 485.96846008 376.93092346 C485.85289631 384.79890552 485.85289631 384.79890552 482.51126099 388.25294495 C478.98030767 389.58248715 476.53867397 389.9314745 472.78543091 389.7646637 C471.72582153 389.72856995 470.66621216 389.6924762 469.57449341 389.6552887 C468.77785278 389.60888245 467.98121216 389.5624762 467.16043091 389.5146637 C467.17614136 391.43713928 467.17614136 391.43713928 467.19216919 393.39845276 C467.22837488 398.15444647 467.25133353 402.910428 467.27029419 407.66651917 C467.28035045 409.72480823 467.2939972 411.78308303 467.31130981 413.84132385 C467.33557444 416.80018133 467.34691779 419.75884987 467.35574341 422.7177887 C467.36606598 423.63771606 467.37638855 424.55764343 467.38702393 425.50544739 C467.38725052 426.7963327 467.38725052 426.7963327 467.38748169 428.11329651 C467.39192291 428.86830444 467.39636414 429.62331238 467.40093994 430.40119934 C467.12760123 432.80315326 466.35264191 434.42859893 465.16043091 436.5146637 C464.50043091 436.5146637 463.84043091 436.5146637 463.16043091 436.5146637 C463.16043091 437.1746637 463.16043091 437.8346637 463.16043091 438.5146637 C449.96043091 438.5146637 436.76043091 438.5146637 423.16043091 438.5146637 C423.16043091 437.8546637 423.16043091 437.1946637 423.16043091 436.5146637 C422.50043091 436.5146637 421.84043091 436.5146637 421.16043091 436.5146637 C414.97263591 421.48716156 413.63157014 405.57706867 411.16043091 389.5146637 C267.28043091 389.5146637 123.40043091 389.5146637 -24.83956909 389.5146637 C-27.31456909 404.8596637 -27.31456909 404.8596637 -29.83956909 420.5146637 C-33.83956909 434.5146637 -33.83956909 434.5146637 -36.83956909 438.5146637 C-38.71888733 438.99568176 -38.71888733 438.99568176 -40.85202026 438.96876526 C-41.65262375 438.96846313 -42.45322723 438.96816101 -43.27809143 438.96784973 C-44.13755875 438.94720459 -44.99702606 438.92655945 -45.88253784 438.9052887 C-46.7661348 438.89962891 -47.64973175 438.89396912 -48.56010437 438.88813782 C-51.38297652 438.86574236 -54.20458047 438.81554097 -57.02706909 438.7646637 C-58.94046222 438.74460276 -60.85387524 438.72635128 -62.76730347 438.7099762 C-67.45854751 438.66586727 -72.14884327 438.59681854 -76.83956909 438.5146637 C-76.83956909 437.8546637 -76.83956909 437.1946637 -76.83956909 436.5146637 C-77.82956909 436.1846637 -78.81956909 435.8546637 -79.83956909 435.5146637 C-81.00461899 433.1845639 -80.96050489 431.84219292 -80.95309448 429.24855042 C-80.95301895 428.36778839 -80.95294342 427.48702637 -80.9528656 426.57957458 C-80.94770432 425.62745087 -80.94254303 424.67532715 -80.93722534 423.6943512 C-80.93581039 422.72055511 -80.93439545 421.74675903 -80.93293762 420.74345398 C-80.92732882 417.62549296 -80.91477483 414.5076031 -80.90206909 411.3896637 C-80.89705523 409.27898765 -80.89249212 407.16831048 -80.88839722 405.05763245 C-80.87735654 399.87661848 -80.86060983 394.69564617 -80.83956909 389.5146637 C-81.70839722 389.57267151 -82.57722534 389.63067932 -83.47238159 389.69044495 C-84.62480347 389.73556213 -85.77722534 389.78067932 -86.96456909 389.8271637 C-88.10152222 389.88517151 -89.23847534 389.94317932 -90.40988159 390.00294495 C-93.88050469 389.50883574 -96.10846744 388.77295613 -98.69223022 386.33717346 C-101.22860125 382.30823215 -100.68749984 377.43420442 -100.63644409 372.8271637 C-100.64218445 371.69190247 -100.6479248 370.55664124 -100.65383911 369.38697815 C-100.65791717 366.98974103 -100.64687944 364.59243711 -100.62179565 362.19532776 C-100.58967554 358.52682132 -100.62149511 354.86272067 -100.65988159 351.1943512 C-100.65591666 348.86361231 -100.64822915 346.53287616 -100.63644409 344.2021637 C-100.64858948 343.10621887 -100.66073486 342.01027405 -100.67324829 340.88111877 C-100.58392595 336.04230201 -100.40045016 333.32452601 -97.6022644 329.28419495 C-92.80817667 326.06962812 -86.32715848 327.14828162 -80.83956909 327.5146637 C-80.84623093 326.43439911 -80.85289276 325.35413452 -80.85975647 324.24113464 C-80.92072754 314.03127765 -80.96561833 303.82145788 -80.99500561 293.61145973 C-81.01062209 288.36313377 -81.03178669 283.11495548 -81.06588745 277.86671448 C-81.09862453 272.79627925 -81.11645229 267.72598554 -81.12420082 262.65545273 C-81.12971865 260.726681 -81.14049332 258.7979165 -81.15675926 256.86920547 C-81.27275811 242.53714357 -81.04863614 231.49961985 -70.83956909 220.5146637 C-64.23846749 213.83434887 -56.85869825 208.55586847 -47.20187378 208.48976135 C-46.09231323 208.49797913 -44.98275269 208.5061969 -43.83956909 208.5146637 C-43.84417806 207.61443639 -43.84878702 206.71420908 -43.85353565 205.78670216 C-43.9641453 183.84266521 -44.04678904 161.89867657 -44.09862995 139.95441914 C-44.12436872 129.34215572 -44.15943628 118.73007884 -44.21676636 108.11793518 C-44.26673405 98.86417119 -44.29889153 89.61054235 -44.31001157 80.35664719 C-44.31650774 75.46053876 -44.33168472 70.56481685 -44.36821938 65.66883278 C-44.40239041 61.05178557 -44.41257983 56.43528071 -44.4051075 51.81811905 C-44.40647268 50.13197689 -44.41627872 48.44581484 -44.43559647 46.75978279 C-44.58210785 33.30181725 -42.67287289 20.62561372 -32.83956909 10.5146637 C-30.30853655 8.25725629 -27.73111166 6.2865854 -24.83956909 4.5146637 C-23.81902876 3.83595246 -22.79848843 3.15724123 -21.74702263 2.45796299 C-15.03572444 -0.83579142 -7.29969448 -0.03909734 0 0 Z M-18.71456909 27.3271637 C-22.31281459 32.72453194 -23.0898925 37.33850788 -23.11804199 43.76597595 C-23.12383439 44.47347351 -23.1296268 45.18097106 -23.13559473 45.90990794 C-23.15252956 48.26827837 -23.15546555 50.62645233 -23.15841675 52.98487854 C-23.16771943 54.68032813 -23.17788861 56.37577315 -23.18885803 58.07121277 C-23.21613371 62.66574258 -23.23130025 67.26024178 -23.24428606 71.85483122 C-23.25992722 76.65949734 -23.28671432 81.46410103 -23.31231689 86.26872253 C-23.35908721 95.36331962 -23.3958398 104.45792847 -23.42898977 113.55258429 C-23.46722348 123.90806683 -23.51663038 134.26348663 -23.56697392 144.61891627 C-23.67026781 165.91745312 -23.75914019 187.2160293 -23.83956909 208.5146637 C-17.89956909 208.5146637 -11.95956909 208.5146637 -5.83956909 208.5146637 C-5.83546021 207.12867981 -5.83135132 205.74269592 -5.82711792 204.31471252 C-5.80515876 199.11643016 -5.75069696 193.91888678 -5.6869812 188.72096252 C-5.66394664 186.48177738 -5.64944005 184.24248613 -5.64401245 182.00318909 C-5.59602245 165.45402074 -5.36776319 152.06716081 6.83230591 139.60450745 C16.11228538 131.27432453 25.40297179 129.06356812 37.62820435 129.09474182 C38.85855408 129.08627228 40.08890381 129.07780273 41.35653687 129.06907654 C44.71231376 129.04976072 48.06753303 129.04392426 51.42332745 129.04582405 C54.23601116 129.04594432 57.04864374 129.03735688 59.8613131 129.02904654 C66.50499951 129.00985134 73.14856031 129.00691375 79.79226685 129.01368713 C86.61794751 129.02031884 93.44308655 128.9974903 100.26865745 128.9603734 C106.15264079 128.9295523 112.03645107 128.9183299 117.92051339 128.92221022 C121.42421322 128.92426569 124.92749171 128.91898765 128.4311142 128.89431763 C132.34597987 128.86766 136.2601514 128.88187259 140.17507935 128.89942932 C141.88685364 128.87953445 141.88685364 128.87953445 143.63320923 128.85923767 C153.80344969 128.96459982 163.15030025 132.14763676 171.16043091 138.5146637 C172.18366526 139.83025073 173.19170059 141.15844124 174.16043091 142.5146637 C174.82043091 142.5146637 175.48043091 142.5146637 176.16043091 142.5146637 C176.56261841 143.5974762 176.56261841 143.5974762 176.97293091 144.7021637 C178.06222847 147.51100329 178.06222847 147.51100329 179.66043091 149.8271637 C183.50514468 156.7156092 183.48643461 164.10662263 183.57449341 171.7959137 C183.60354263 173.37704956 183.60354263 173.37704956 183.63317871 174.99012756 C183.69259255 178.33155927 183.73920653 181.67302614 183.78543091 185.0146637 C183.82364585 187.29071975 183.86269959 189.56676189 183.90261841 191.8427887 C183.99826255 197.3999663 184.0824338 202.95721153 184.16043091 208.5146637 C190.10043091 208.5146637 196.04043091 208.5146637 202.16043091 208.5146637 C202.17501343 207.11296936 202.18959595 205.71127502 202.20462036 204.2671051 C202.26291654 199.02987603 202.34014654 193.79306288 202.42288208 188.5561676 C202.45598468 186.29647103 202.48406149 184.03669469 202.50686646 181.77687073 C202.54068308 178.5146458 202.59301207 175.25314231 202.64871216 171.9912262 C202.65510208 170.99289764 202.661492 169.99456909 202.66807556 168.96598816 C202.90775354 157.33889321 206.00216545 147.59730133 214.38699341 139.31544495 C223.90040327 131.14599299 233.52074464 128.90979594 245.8611145 128.98121643 C247.08054245 128.97260086 248.2999704 128.96398529 249.55635071 128.95510864 C252.86879559 128.93642849 256.18023001 128.93550764 259.4926486 128.94443011 C262.27308966 128.94958042 265.05344327 128.94221483 267.8338753 128.93495804 C274.40146549 128.91802057 280.968823 128.92146148 287.53640747 128.93824768 C294.27751582 128.95515633 301.01797596 128.93933842 307.75901353 128.9070248 C313.57854686 128.88020106 319.39788 128.87308729 325.21746886 128.88153988 C328.67921762 128.88643297 332.14057709 128.88445324 335.60227585 128.86375237 C339.46875479 128.84173295 343.33447187 128.8609376 347.20095825 128.88356018 C348.88624382 128.86602188 348.88624382 128.86602188 350.60557556 128.84812927 C363.19674101 128.99695458 373.02977103 133.25984451 381.91433716 141.96388245 C384.86448865 145.3142284 386.5746324 148.39317617 388.16043091 152.5146637 C388.67581421 153.68190979 389.19119751 154.84915588 389.72219849 156.05177307 C391.65578963 161.24348436 391.63738473 166.30825955 391.67214966 171.7959137 C391.69907646 173.37704956 391.69907646 173.37704956 391.72654724 174.99012756 C391.78039846 178.33159985 391.81446543 181.67293134 391.84793091 185.0146637 C391.88112617 187.29072485 391.91561785 189.56676748 391.95144653 191.8427887 C392.03611064 197.39997838 392.10304193 202.95712813 392.16043091 208.5146637 C397.77043091 208.5146637 403.38043091 208.5146637 409.16043091 208.5146637 C409.22990925 186.35721833 409.2834309 164.19979925 409.31586742 142.04226685 C409.33132928 131.75389393 409.35240583 121.46558999 409.38674927 111.17726135 C409.41667242 102.20884276 409.43601086 93.24047412 409.44269639 84.27200699 C409.4466037 79.52427739 409.4557723 74.77669071 409.47762108 70.02900696 C409.49803226 65.55734223 409.50425535 61.08587887 409.49975395 56.61417198 C409.50057708 54.97593783 409.50651511 53.33769672 409.51804733 51.69950294 C409.58081628 42.32033588 409.40507643 34.92240623 404.47293091 26.7021637 C397.24089391 19.86104762 387.2590746 21.09173532 377.99075317 21.13371277 C376.3313774 21.13025408 374.67200392 21.12548809 373.01263523 21.11953104 C368.4626595 21.10702044 363.91287281 21.11319171 359.36289644 21.12248969 C354.45212308 21.12927957 349.54138215 21.11879924 344.63061523 21.11054993 C335.01431242 21.09720978 325.39807985 21.1000916 315.78177428 21.10878785 C307.96642846 21.11556287 300.15110232 21.1164819 292.33575439 21.1132164 C290.66730212 21.11252685 290.66730212 21.11252685 288.96514374 21.11182337 C286.70552786 21.1108642 284.44591198 21.10989156 282.18629611 21.1089056 C260.99764708 21.10035088 239.80903699 21.11018714 218.62039435 21.1263067 C200.43938443 21.13970995 182.25843198 21.13738188 164.0774231 21.12355042 C142.96461383 21.10749607 121.85183868 21.10117486 100.73902416 21.11038721 C98.48771859 21.11134285 96.23641301 21.11228597 93.98510742 21.1132164 C92.87742069 21.11367923 91.76973396 21.11414205 90.62848097 21.1146189 C82.8224824 21.11720923 75.01650547 21.11283688 67.21051025 21.10577774 C57.69767267 21.09736417 48.18490935 21.09963991 38.67208028 21.11561997 C33.81845338 21.12350457 28.9649503 21.12659101 24.11132431 21.11667252 C19.66765597 21.10772911 15.22422617 21.11265269 10.78057945 21.12860517 C9.17369061 21.13195446 7.56678159 21.13025556 5.95990574 21.12297781 C-7.5628693 20.6683131 -7.5628693 20.6683131 -18.71456909 27.3271637 Z M20.47293091 155.5771637 C8.5105392 170.77263425 14.16043091 190.09855701 14.16043091 208.5146637 C63.66043091 208.5146637 113.16043091 208.5146637 164.16043091 208.5146637 C167.22269994 183.37082848 167.22269994 183.37082848 158.97293091 156.2021637 C158.42250122 155.54603088 157.87207153 154.88989807 157.30496216 154.21388245 C151.42103658 149.55175562 143.76768564 150.22347067 136.64480591 150.24000549 C135.50410645 150.23489456 134.36340698 150.22978363 133.18814087 150.22451782 C129.42885041 150.21065185 125.66974386 150.21157615 121.91043091 150.21388245 C119.29161511 150.20999437 116.67279995 150.20565946 114.0539856 150.20089722 C108.56991959 150.19269887 103.08590515 150.19358296 97.60183716 150.19898987 C91.27437695 150.20503257 84.94713895 150.1927058 78.61971664 150.1714198 C72.5162792 150.15164708 66.41294532 150.14863372 60.30947876 150.15215492 C57.71954832 150.15164181 55.12961431 150.14640592 52.53970337 150.136343 C48.91831356 150.12399706 45.29743759 150.13075947 41.67605591 150.14234924 C40.60883301 150.13470551 39.54161011 150.12706177 38.44204712 150.1191864 C31.19267191 150.1704264 26.3437121 151.07168045 20.47293091 155.5771637 Z M226.84793091 156.7646637 C226.3774231 157.30606995 225.90691528 157.8474762 225.42214966 158.4052887 C217.35374306 171.89426567 222.16043091 199.69896611 222.16043091 208.5146637 C271.66043091 208.5146637 321.16043091 208.5146637 372.16043091 208.5146637 C374.77401589 180.93693186 374.77401589 180.93693186 365.84793091 155.5146637 C358.90995748 150.35152068 352.96888788 150.07900815 344.55300903 150.1264801 C343.402556 150.12122314 342.25210297 150.11596619 341.06678772 150.11054993 C337.27494616 150.09737761 333.48352653 150.10607864 329.69168091 150.1162262 C327.05044474 150.11420468 324.40920911 150.11129259 321.76797485 150.10752869 C316.23680068 150.10208075 310.70574693 150.10923735 305.17459106 150.12355042 C298.7925878 150.13987519 292.41087213 150.13458599 286.02887583 150.1180712 C279.8730989 150.10278332 273.71744881 150.10444407 267.56166077 150.1132164 C264.94940653 150.11521574 262.33714494 150.11276851 259.72489929 150.10577774 C256.0723535 150.09814781 252.42035769 150.1097901 248.76785278 150.1264801 C247.69127914 150.12040741 246.61470551 150.11433472 245.50550842 150.108078 C238.24753945 150.16942807 231.78660782 150.81042788 226.84793091 156.7646637 Z M-56.83956909 236.3271637 C-73.01021844 262.0991361 -60.83956909 297.08960064 -60.83956909 327.5146637 C106.80043091 327.5146637 274.44043091 327.5146637 447.16043091 327.5146637 C452.31969957 279.68038165 452.31969957 279.68038165 442.59793091 235.7021637 C433.75942041 227.7701671 422.12471934 228.94984297 411.03030396 229.00672913 C409.07364024 229.00211696 407.11697999 228.99576193 405.16032696 228.98782015 C399.79778584 228.9711472 394.43553007 228.97936406 389.07298803 228.99176502 C383.28421454 229.00082145 377.49548985 228.98684282 371.70672607 228.97584534 C360.37215057 228.95806192 349.03768104 228.96189935 337.7031014 228.9734959 C328.49098291 228.98253062 319.27889411 228.98375405 310.06677246 228.97940063 C308.75549336 228.9787877 307.44421426 228.97817477 306.09319943 228.97754326 C304.09717051 228.97658498 302.10114159 228.97562664 300.10511268 228.9746357 C275.17208668 228.96240507 250.23911845 228.97348502 225.30610137 228.99502329 C203.16408913 229.01400513 181.02216891 229.01230659 158.88015747 228.99317932 C133.99216837 228.97175171 109.10423029 228.96327252 84.21623325 228.97562838 C81.5621853 228.97690257 78.90813733 228.97816005 76.25408936 228.97940063 C74.94825809 228.98001774 73.64242682 228.98063484 72.29702491 228.98127064 C63.09631946 228.98472386 53.89564668 228.97889577 44.69494629 228.96948242 C33.48186647 228.95826233 22.26889866 228.96130283 11.05583167 228.9826054 C5.33510788 228.99311554 -0.38542919 228.99723804 -6.10615158 228.98400879 C-11.34433701 228.97207864 -16.58216285 228.97865808 -21.82031572 228.999919 C-23.71385289 229.00438236 -25.60742052 229.00212478 -27.50093806 228.99241585 C-43.49418683 228.54215054 -43.49418683 228.54215054 -56.83956909 236.3271637 Z M-79.83956909 349.5146637 C-79.83956909 355.4546637 -79.83956909 361.3946637 -79.83956909 367.5146637 C100.34043091 367.5146637 280.52043091 367.5146637 466.16043091 367.5146637 C466.16043091 361.5746637 466.16043091 355.6346637 466.16043091 349.5146637 C285.98043091 349.5146637 105.80043091 349.5146637 -79.83956909 349.5146637 Z M-60.83956909 389.5146637 C-60.83956909 398.7546637 -60.83956909 407.9946637 -60.83956909 417.5146637 C-57.53956909 417.5146637 -54.23956909 417.5146637 -50.83956909 417.5146637 C-50.65781128 416.2462262 -50.65781128 416.2462262 -50.47238159 414.9521637 C-48.93491634 404.54470661 -48.93491634 404.54470661 -47.77706909 400.1396637 C-46.63274331 395.99146407 -46.63274331 395.99146407 -45.83956909 389.5146637 C-50.78956909 389.5146637 -55.73956909 389.5146637 -60.83956909 389.5146637 Z M432.16043091 389.5146637 C434.45171568 403.55255162 434.45171568 403.55255162 437.16043091 417.5146637 C440.46043091 417.5146637 443.76043091 417.5146637 447.16043091 417.5146637 C447.16043091 408.2746637 447.16043091 399.0346637 447.16043091 389.5146637 C442.21043091 389.5146637 437.26043091 389.5146637 432.16043091 389.5146637 Z " fill="#152241" transform="translate(99.83956909179688,-0.5146636962890625)"/>
</svg>
