<?xml version="1.0" encoding="UTF-8"?>
<svg version="1.1" xmlns="http://www.w3.org/2000/svg" width="504" height="402">
<path d="M0 0 C2.29309416 0.80828342 3.56368851 1.74111758 5.3671875 3.35888672 C5.97449707 3.89594238 6.58180664 4.43299805 7.20751953 4.98632812 C8.16634033 5.85136963 8.16634033 5.85136963 9.14453125 6.73388672 C10.49634521 7.93038727 11.84921576 9.12569511 13.203125 10.31982422 C13.86554199 10.90602539 14.52795898 11.49222656 15.21044922 12.09619141 C18.51148737 14.98470744 21.92769732 17.72777678 25.3359375 20.48779297 C28.47193221 23.05279575 31.55939255 25.67067954 34.64453125 28.29638672 C41.08498407 33.76687485 47.64465809 39.06794162 54.3203125 44.24951172 C61.03778819 49.47400478 67.60449389 54.82177329 74.03979492 60.39086914 C78.39749634 64.16076764 82.83146123 67.82409931 87.3046875 71.45654297 C90.42599758 74.01592944 93.50644123 76.61992794 96.58203125 79.23388672 C101.35048284 83.28355668 106.15828221 87.27823517 111.01171875 91.22607422 C113.37907692 93.15971792 115.73725902 95.1027109 118.08984375 97.05419922 C124.55210101 102.40943482 131.01186279 107.73378396 137.70703125 112.79638672 C143.21008913 116.97871071 148.42734696 121.42431616 153.6262207 125.97705078 C162.63049813 134.16553503 162.63049813 134.16553503 172.50624275 141.16988277 C176.70580282 143.91438182 179.59354757 146.02217829 181.00471115 150.96707344 C181.34272345 155.02173945 181.36721217 158.97195761 181.28076172 163.03491211 C181.28449391 164.58138096 181.29257603 166.12784447 181.30465698 167.67427063 C181.32454671 171.85699233 181.2823774 176.03698752 181.2276969 180.21931386 C181.17989353 184.6041971 181.18592569 188.98903287 181.18508911 193.37413025 C181.1758441 200.73580852 181.12863896 208.09644965 181.05615234 215.45776367 C180.97265972 223.95921869 180.93752042 232.45974073 180.93091285 240.96158224 C180.92370406 250.02752857 180.88594538 259.09314107 180.83667231 268.15894771 C180.82423766 270.76508073 180.81695091 273.37118831 180.8106041 275.97734261 C180.7987686 280.07755827 180.7660502 284.17711311 180.71739578 288.27705193 C180.70256477 289.77858239 180.69437507 291.28019591 180.69343567 292.78179932 C180.68250222 301.65824176 180.51168955 307.9584534 174.23046875 314.72998047 C173.35261719 315.44347656 173.35261719 315.44347656 172.45703125 316.17138672 C171.57144531 316.91195312 171.57144531 316.91195312 170.66796875 317.66748047 C169.08203125 318.73388672 169.08203125 318.73388672 167.08203125 318.73388672 C167.08203125 319.39388672 167.08203125 320.05388672 167.08203125 320.73388672 C124.51203125 320.73388672 81.94203125 320.73388672 38.08203125 320.73388672 C38.08203125 281.13388672 38.08203125 241.53388672 38.08203125 200.73388672 C12.34203125 200.73388672 -13.39796875 200.73388672 -39.91796875 200.73388672 C-39.91796875 240.33388672 -39.91796875 279.93388672 -39.91796875 320.73388672 C-71.69467217 320.97570492 -71.69467217 320.97570492 -85.02734375 321.02685547 C-94.22741805 321.06243516 -103.42716225 321.10422461 -112.62695312 321.18652344 C-119.32765218 321.24643736 -126.02808304 321.28506217 -132.72904253 321.29841769 C-136.27538295 321.30622152 -139.82095629 321.32448403 -143.36705017 321.36826706 C-147.33143188 321.41681492 -151.29507185 321.41781886 -155.25976562 321.41503906 C-156.42789795 321.43661072 -157.59603027 321.45818237 -158.79956055 321.48040771 C-166.27112028 321.42376727 -170.60813838 320.07034297 -175.91796875 314.73388672 C-180.63899434 309.82002872 -182.03106841 306.25516545 -182.1257019 299.44885254 C-182.14586365 298.13118896 -182.16602539 296.81352539 -182.1867981 295.45593262 C-182.20399275 293.99194565 -182.22098418 292.52795629 -182.23779297 291.06396484 C-182.2587905 289.52473625 -182.28003681 287.98551104 -182.30151367 286.44628906 C-182.4893816 272.3834062 -182.59212041 258.31935789 -182.67365837 244.25550079 C-182.73518888 233.86538485 -182.83864347 223.477439 -182.99635303 213.08832979 C-183.10359462 205.77695657 -183.16073492 198.46617881 -183.18178952 191.15405607 C-183.19583044 186.79019245 -183.23201983 182.42917126 -183.32302475 178.06617737 C-183.40790207 173.95451522 -183.43036098 169.84704375 -183.40666199 165.73461914 C-183.40862837 164.23290482 -183.43256139 162.73101831 -183.48109818 161.23008728 C-183.81795423 150.24530078 -183.81795423 150.24530078 -180.65923929 146.07008934 C-177.60114497 142.91194463 -174.17977922 140.34576283 -170.5560267 137.87486935 C-168.05993143 136.1362243 -165.75044881 134.18367861 -163.41796875 132.23388672 C-162.52980469 131.51201172 -161.64164063 130.79013672 -160.7265625 130.04638672 C-158.16985626 127.94128228 -155.64824963 125.80229987 -153.13305664 123.64819336 C-148.52035911 119.70058562 -143.87533312 115.89593459 -138.98046875 112.29638672 C-133.86132413 108.52261519 -129.06064745 104.48483155 -124.26757812 100.31396484 C-120.26441061 96.84572224 -116.17163586 93.53407659 -111.98046875 90.29638672 C-106.25238846 85.86351186 -100.76351125 81.20243783 -95.31494141 76.43164062 C-90.8600215 72.5340211 -86.32123004 68.76146919 -81.71875 65.03857422 C-78.44532885 62.34496407 -75.24636656 59.57246071 -72.04296875 56.79638672 C-67.15617845 52.57314459 -62.17418816 48.56049215 -57.02392578 44.66162109 C-46.53441026 36.68341344 -36.49960848 28.10536209 -26.45800781 19.57495117 C-22.17578673 15.94046669 -17.85936473 12.35181865 -13.4921875 8.81982422 C-11.77204838 7.42596338 -10.06620872 6.01427379 -8.375 4.58544922 C-7.18970703 3.60705078 -7.18970703 3.60705078 -5.98046875 2.60888672 C-5.29082031 2.02880859 -4.60117188 1.44873047 -3.890625 0.85107422 C-1.91796875 -0.26611328 -1.91796875 -0.26611328 0 0 Z " fill="#5C5C5C" transform="translate(252.91796875,81.26611328125)"/>
<path d="M0 0 C5.65373391 4.2383878 10.92029319 8.87326112 16.15283203 13.61572266 C18.50079896 15.71242869 20.93357092 17.69206699 23.38671875 19.6640625 C28.42020416 23.74163377 33.31005184 27.96912165 38.19482422 32.22216797 C43.84164378 37.13611767 49.54662615 41.97732195 55.27197266 46.79931641 C56.95440398 48.2212685 58.63018789 49.65074974 60.3046875 51.08203125 C60.87300293 51.56655762 61.44131836 52.05108398 62.02685547 52.55029297 C63.59194558 53.88507493 65.15540817 55.22176457 66.71875 56.55859375 C69.11386879 58.5669355 71.57969551 60.45758867 74.0847168 62.3269043 C74.79863083 62.86026901 75.51254486 63.39363373 76.24809265 63.94316101 C76.78883926 64.3460585 77.32958588 64.74895599 77.88671875 65.1640625 C77.89258499 64.44045029 77.89845123 63.71683807 77.90449524 62.97129822 C77.96255503 56.13027123 78.03470738 49.28952003 78.12243366 42.44881344 C78.16703781 38.93245197 78.20631513 35.4162037 78.2331543 31.8996582 C78.26429518 27.8507815 78.31907974 23.80251712 78.375 19.75390625 C78.38138992 18.49948227 78.38777985 17.24505829 78.3943634 15.95262146 C78.58765982 4.42274344 78.58765982 4.42274344 81.88671875 -0.8359375 C85.76000188 -3.73751451 88.61257585 -4.22049759 93.40185547 -4.25585938 C94.7002536 -4.27177124 95.99865173 -4.28768311 97.33639526 -4.30407715 C98.74639837 -4.30534458 100.15640282 -4.30552115 101.56640625 -4.3046875 C103.02222994 -4.31179432 104.47805084 -4.31949408 105.93386841 -4.32775879 C108.9818704 -4.34118697 112.02961347 -4.34278029 115.07763672 -4.33691406 C118.97054337 -4.33102341 122.86220048 -4.36158873 126.75486565 -4.40203094 C129.76106377 -4.42796998 132.76696362 -4.43077976 135.77325821 -4.42713928 C137.2077053 -4.42882518 138.64216695 -4.4384166 140.07650375 -4.45628357 C152.6610018 -4.59578529 152.6610018 -4.59578529 157.25830078 -1.42382812 C160.83635373 2.09905514 160.83635373 2.09905514 160.99465752 5.44651127 C160.98682306 6.40639171 160.97898861 7.36627214 160.97091675 8.35523987 C160.96480881 9.45565109 160.95870087 10.55606232 160.95240784 11.68981934 C160.94088181 12.90278687 160.92935577 14.11575439 160.91748047 15.36547852 C160.90555324 17.32014497 160.89364552 19.27481164 160.88246846 21.22948253 C160.87426785 22.61845814 160.86541754 24.00743004 160.85596728 25.39639771 C160.82141398 30.50533229 160.80524525 35.614084 160.80032349 40.72312927 C160.7995908 41.46453724 160.79885811 42.20594521 160.79810321 42.96982008 C160.79543764 46.02974525 160.7933909 49.08967052 160.79162765 52.14959633 C160.78584972 60.83296578 160.7621958 69.51543532 160.68457031 78.19848633 C160.62303936 85.09469403 160.60055552 91.98979489 160.62338269 98.88625664 C160.63400006 102.53435334 160.62521418 106.18003041 160.56905746 109.8277607 C160.50681003 113.90561052 160.53107058 117.9786764 160.56201172 122.05688477 C160.53024338 123.25568268 160.49847504 124.45448059 160.46574402 125.68960571 C160.56715831 130.83209868 160.78380198 133.92689662 164.28464127 137.85386467 C167.06229646 140.13940105 169.90023993 142.16319358 172.88671875 144.1640625 C174.22800279 145.27772162 175.55581412 146.40834117 176.85546875 147.5703125 C177.44021973 148.08158691 178.0249707 148.59286133 178.62744141 149.11962891 C179.20800293 149.62929199 179.78856445 150.13895508 180.38671875 150.6640625 C185.5679612 155.18370216 190.81153537 159.60338969 196.15625 163.9296875 C199.20638937 166.42565277 202.20243186 168.97961541 205.19921875 171.5390625 C212.65867079 177.89436737 220.2668249 184.21642975 228.2890625 189.8515625 C228.81628906 190.2846875 229.34351563 190.7178125 229.88671875 191.1640625 C229.88671875 191.8240625 229.88671875 192.4840625 229.88671875 193.1640625 C230.54671875 193.1640625 231.20671875 193.1640625 231.88671875 193.1640625 C232.63109561 198.42983953 233.03601688 203.14408396 230.33984375 207.8828125 C228.42767088 210.19975188 226.44790902 212.40896793 224.36816406 214.57617188 C222.69189613 216.37288358 221.11351319 218.23395136 219.53515625 220.1171875 C218.38167555 221.48711823 217.22803073 222.85691078 216.07421875 224.2265625 C215.24821167 225.21039917 215.24821167 225.21039917 214.40551758 226.21411133 C213.61310669 227.1348645 213.61310669 227.1348645 212.8046875 228.07421875 C212.33828857 228.62215088 211.87188965 229.17008301 211.39135742 229.73461914 C208.69242258 232.29867293 206.29406925 233.10139319 202.63671875 233.6640625 C197.35071214 232.95926162 194.85135469 230.59794879 190.88671875 227.1640625 C189.8091007 226.24549869 188.73093246 225.32758011 187.65234375 224.41015625 C185.22481379 222.33869543 182.80578498 220.25773875 180.390625 218.171875 C175.63336895 214.07367171 170.76636607 210.11516801 165.88671875 206.1640625 C164.60267512 205.12132702 163.31883485 204.07834108 162.03515625 203.03515625 C161.35678711 202.4839209 160.67841797 201.93268555 159.97949219 201.36474609 C158.5843099 200.23095703 157.1891276 199.09716797 155.79394531 197.96337891 C155.11557617 197.41214355 154.43720703 196.8609082 153.73828125 196.29296875 C153.07860352 195.75687988 152.41892578 195.22079102 151.73925781 194.66845703 C150.13070273 193.36219499 148.52056986 192.05787633 146.91015625 190.75390625 C140.65952389 185.67411506 134.53426138 180.46021058 128.4296875 175.20703125 C125.07529247 172.32175675 121.70379886 169.45727188 118.32421875 166.6015625 C117.79199707 166.15184082 117.25977539 165.70211914 116.71142578 165.23876953 C115.63958535 164.33337808 114.56764549 163.42810433 113.49560547 162.52294922 C111.33373449 160.69700477 109.17354451 158.86907904 107.01367188 157.04077148 C105.93075822 156.12442243 104.84742599 155.20856779 103.76367188 154.29321289 C101.03405887 151.98691983 98.31157464 149.67305654 95.6015625 147.34375 C90.5163305 142.98519598 85.41585346 138.75354151 80.01171875 134.7890625 C74.56128524 130.7714378 69.47185504 126.42527199 64.38330078 121.96142578 C60.77009317 118.79235125 57.12525076 115.68599625 53.38671875 112.6640625 C48.9700272 109.08864553 44.66895001 105.39803109 40.38671875 101.6640625 C35.2052993 97.14736036 29.96521071 92.72665141 24.62109375 88.40234375 C22.10522258 86.34292349 19.62775329 84.2469159 17.15722656 82.13378906 C11.86657087 77.60925799 6.48907901 73.29066993 0.93139648 69.09643555 C-6.02839296 63.78615522 -12.55234696 57.95365597 -19.11328125 52.1640625 C-21.88110062 53.44411792 -24.06031138 54.81808614 -26.328125 56.8515625 C-26.9250415 57.38015869 -27.52195801 57.90875488 -28.13696289 58.45336914 C-28.76852295 59.01789795 -29.40008301 59.58242676 -30.05078125 60.1640625 C-34.81125994 64.36006212 -39.61218139 68.40086973 -44.67578125 72.2265625 C-49.96586036 76.22495358 -55.01316154 80.43187036 -60.02368164 84.77368164 C-63.51004868 87.79409959 -67.02979234 90.75838894 -70.61328125 93.6640625 C-76.01691027 98.05352068 -81.2936658 102.58089059 -86.5703125 107.12109375 C-90.98390937 110.91743807 -95.42975496 114.67514376 -99.87890625 118.4296875 C-102.1039465 120.30782744 -104.32174336 122.19411014 -106.53515625 124.0859375 C-111.57394927 128.38583262 -116.61713396 132.6100349 -121.96875 136.51953125 C-125.45941417 139.19634294 -128.7815328 142.07391405 -132.12719727 144.92797852 C-135.56834945 147.86219071 -139.03845249 150.75232826 -142.55078125 153.6015625 C-147.97185081 158.0155248 -153.27170099 162.56189055 -158.5703125 167.12109375 C-162.45794639 170.46503232 -166.36912436 173.78060445 -170.28857422 177.0871582 C-172.98709926 179.36375735 -175.67977876 181.64644592 -178.359375 183.9453125 C-183.63273607 188.45866356 -188.9483381 192.85580564 -194.48828125 197.0390625 C-200.08428469 201.2679863 -205.38101508 205.78633742 -210.65649414 210.40649414 C-216.04094201 215.12059186 -221.53722445 219.67787135 -227.11328125 224.1640625 C-228.51320313 225.29908203 -228.51320313 225.29908203 -229.94140625 226.45703125 C-238.98677724 233.75793783 -238.98677724 233.75793783 -246.11328125 233.1640625 C-250.789167 230.52089694 -254.08812294 227.23915544 -257.42578125 223.1015625 C-258.37593808 221.93590111 -259.32646503 220.77054133 -260.27734375 219.60546875 C-260.74817383 219.02555176 -261.21900391 218.44563477 -261.70410156 217.84814453 C-263.0241724 216.27055467 -264.42210923 214.75905264 -265.82421875 213.25390625 C-270.78706768 207.81355924 -273.1185676 204.13861008 -272.91796875 196.671875 C-271.13016021 191.100161 -265.36011966 187.57041352 -260.98828125 183.9140625 C-260.13459961 183.19573242 -260.13459961 183.19573242 -259.26367188 182.46289062 C-254.85156854 178.75908481 -250.39347636 175.11305852 -245.92578125 171.4765625 C-242.2315467 168.43908076 -238.58853019 165.34334204 -234.94482422 162.24560547 C-231.57477135 159.38559312 -228.17301817 156.57150517 -224.73828125 153.7890625 C-220.34056819 150.21472388 -216.06387844 146.52117668 -211.80078125 142.7890625 C-206.41186952 138.07820765 -200.90770312 133.57466079 -195.24951172 129.19238281 C-190.6603246 125.62748668 -186.2128088 121.91906642 -181.79418945 118.14575195 C-178.45556664 115.29533598 -175.08499881 112.49281359 -171.67578125 109.7265625 C-166.81119501 105.76833294 -162.05265947 101.69757189 -157.30273438 97.60351562 C-153.80111774 94.59174263 -150.26550532 91.63354559 -146.67578125 88.7265625 C-142.21728152 85.10978543 -137.87587953 81.3753911 -133.55078125 77.6015625 C-127.85322787 72.63457444 -122.06329602 67.82758759 -116.11328125 63.1640625 C-109.97683607 58.31950051 -103.95210168 53.36548087 -97.99853516 48.29931641 C-94.58916978 45.40140578 -91.15002663 42.54683228 -87.67578125 39.7265625 C-83.47637483 36.30730705 -79.34445141 32.81899712 -75.23828125 29.2890625 C-74.64595703 28.77996338 -74.05363281 28.27086426 -73.44335938 27.74633789 C-72.24880621 26.71930163 -71.05430732 25.69220224 -69.85986328 24.66503906 C-65.53814361 20.95104234 -61.20407824 17.25344233 -56.83007812 13.60107422 C-55.63273315 12.5988597 -54.43899296 11.59232958 -53.24804688 10.58251953 C-38.32637823 -2.03451323 -19.04243607 -11.46349219 0 0 Z " fill="#5C5C5C" transform="translate(272.11328125,3.8359375)"/>
</svg>
