<?xml version="1.0" encoding="UTF-8"?>
<svg version="1.1" xmlns="http://www.w3.org/2000/svg" width="434" height="388">
<path d="M0 0 C1.95915368 -0.01244848 1.95915368 -0.01244848 3.95788622 -0.02514845 C5.40050043 -0.02427901 6.84311452 -0.02321041 8.28572845 -0.02196407 C9.82360782 -0.02785034 11.36148412 -0.03459 12.89935637 -0.04210895 C17.12296978 -0.06016493 21.34652076 -0.0657011 25.57016802 -0.06909573 C30.12663161 -0.07485799 34.68305525 -0.09198436 39.23949432 -0.10744381 C50.24196619 -0.14218182 61.2444347 -0.15778103 72.24694943 -0.17156711 C77.43134117 -0.17853171 82.61572894 -0.18768786 87.80011749 -0.1966753 C105.03939711 -0.22587795 122.27867284 -0.25067041 139.51797485 -0.26129913 C140.62112887 -0.26198983 141.72428288 -0.26268052 142.8608658 -0.26339215 C143.96663132 -0.26408416 145.07239684 -0.26477618 146.2116704 -0.26548916 C148.45229881 -0.26690114 150.69292721 -0.26832195 152.9335556 -0.26975155 C154.04498017 -0.27045672 155.15640474 -0.27116189 156.30150884 -0.27188843 C174.30104511 -0.28413265 192.30037049 -0.32691494 210.29981929 -0.38269175 C228.78934584 -0.43952091 247.27876587 -0.46995285 265.76838064 -0.47431129 C276.14565239 -0.47738983 286.52263124 -0.49182994 296.89981842 -0.53559208 C305.73847556 -0.57276163 314.5767605 -0.58583828 323.41548461 -0.56788719 C327.92174017 -0.55945505 332.42723636 -0.56215651 336.93339157 -0.59570599 C341.06693177 -0.6262076 345.19915591 -0.62377616 349.33270472 -0.59621798 C350.8199933 -0.59190557 352.3073757 -0.59918564 353.7945264 -0.619891 C366.80625629 -0.78957825 376.470263 2.76024844 386.45992279 11.26564884 C395.54882241 21.0755429 398.20695576 31.50097198 398.10157013 44.59418583 C398.1080593 46.01692036 398.11671999 47.43964634 398.12734443 48.86235601 C398.15002484 52.74439441 398.14182323 56.62582894 398.12820518 60.50788677 C398.11891425 64.70493615 398.13846565 68.90186896 398.15418243 73.09888554 C398.18021734 81.30911166 398.17919727 89.51911842 398.16814425 97.72937008 C398.15957444 104.40240112 398.16042557 111.07536886 398.16794014 117.74840069 C398.16899503 118.69932478 398.17004992 119.65024888 398.17113677 120.62998885 C398.17330775 122.56193415 398.17549453 124.49387942 398.17769692 126.42582468 C398.19710831 144.52424953 398.18514522 162.62255141 398.16291098 180.7209662 C398.14465071 196.24530659 398.15558036 211.76940926 398.18721771 227.29372501 C398.22397945 245.33351297 398.24100336 263.3731525 398.22780544 281.41297799 C398.22646436 283.33676674 398.22515538 285.2605555 398.22387886 287.18434429 C398.22293286 288.60406935 398.22293286 288.60406935 398.22196775 290.05247572 C398.21894126 296.71790534 398.23019703 303.38322287 398.24712944 310.04862881 C398.26745232 318.17076734 398.26658743 326.29257018 398.23849704 334.41469117 C398.2247244 338.55763145 398.22054003 342.69998563 398.2424469 346.84290409 C398.26224572 350.63726027 398.25422502 354.43051445 398.22425256 358.22479454 C398.21542191 360.24345119 398.23600789 362.26217077 398.25772113 364.28072995 C398.17232274 371.14129468 397.62153704 375.53702578 393.00222141 380.77406007 C387.41115022 386.18130023 383.49621502 388.55561317 375.64742279 388.64064884 C368.52179991 388.51511973 364.93374611 387.68278973 359.78414154 382.61721134 C354.05624538 376.35616972 353.16347771 371.09945653 353.18144989 362.8187952 C353.17566422 361.86535725 353.16987854 360.91191929 353.16391754 359.92958927 C353.14687813 356.72280903 353.14404839 353.51617196 353.14107513 350.30935001 C353.13166623 347.97586974 353.12138736 345.64239284 353.11030769 343.30891991 C353.08301655 337.05425086 353.06764838 330.79960538 353.05472565 324.54489231 C353.04080455 318.67789421 353.01616324 312.8109604 352.99239349 306.94399357 C352.92911632 289.78041504 352.88307529 272.61677647 352.83492279 255.45314884 C352.71117279 217.11127384 352.58742279 178.76939884 352.45992279 139.26564884 C238.93992279 139.26564884 125.41992279 139.26564884 8.45992279 139.26564884 C8.32899849 215.16674239 8.32899849 215.16674239 8.25215912 291.06789494 C8.21126556 305.74929142 8.21126556 305.74929142 8.18579865 312.62273502 C8.16972788 317.4223589 8.16761306 322.22177103 8.17395782 327.02141666 C8.18159787 333.14736793 8.16533547 339.27282181 8.13190591 345.39868188 C8.12369401 347.64455324 8.12381633 349.89047456 8.13331378 352.13634086 C8.14496079 355.17664998 8.1257906 358.2153055 8.09915924 361.25548649 C8.10983272 362.1288043 8.12050619 363.00212212 8.13150311 363.90190411 C8.01590136 371.02708864 5.82214531 377.57740775 0.94655067 382.9257654 C-5.25297982 388.28791038 -10.73772028 388.95994926 -18.76273346 388.70314884 C-25.04275879 387.97578293 -28.74343067 385.516207 -32.79995191 380.80128932 C-37.54012618 374.35978164 -37.2412307 368.08634982 -37.17499542 360.32479191 C-37.18076202 358.90749829 -37.18870676 357.49021215 -37.19863164 356.07294154 C-37.21945582 352.1918374 -37.20921029 348.31134998 -37.19370055 344.43024397 C-37.18237223 340.23920823 -37.19985736 336.0482774 -37.21360016 331.85726261 C-37.23582366 323.65129018 -37.23103468 315.44554653 -37.21653695 307.23956516 C-37.20523814 300.56745197 -37.20371661 293.89540283 -37.20915604 287.22328281 C-37.2099222 286.27310714 -37.21068837 285.32293147 -37.21147775 284.34396259 C-37.21307641 282.41355562 -37.21469748 280.48314867 -37.21634071 278.55274174 C-37.23059641 260.45325036 -37.21420989 242.35388561 -37.18733887 224.25441501 C-37.16501468 208.7375883 -37.16886854 193.22094871 -37.19193268 177.7041254 C-37.21871872 159.67494717 -37.22920795 141.64588003 -37.21387136 123.61668468 C-37.21227867 121.69221578 -37.21070681 119.76774686 -37.20915604 117.84327793 C-37.20838466 116.89647245 -37.20761328 115.94966696 -37.20681853 114.9741704 C-37.20250886 108.31518136 -37.20977256 101.65626299 -37.2215538 94.99728489 C-37.23560915 86.87448415 -37.23171586 78.75192486 -37.20515008 70.62915161 C-37.19205034 66.48782942 -37.18679316 62.34690906 -37.20339584 58.20559025 C-37.21838983 54.40793366 -37.20995373 50.61104805 -37.18350808 46.81346056 C-37.17535295 44.802599 -37.19151656 42.79168313 -37.20879424 40.78087926 C-37.07844854 28.61229897 -33.47489499 19.23745161 -25.00882721 10.46096134 C-17.74202839 3.99902948 -9.81455552 0.02644856 0 0 Z M7.45992279 65.26564884 C7.45992279 66.91564884 7.45992279 68.56564884 7.45992279 70.26564884 C121.63992279 70.26564884 235.81992279 70.26564884 353.45992279 70.26564884 C353.45992279 68.61564884 353.45992279 66.96564884 353.45992279 65.26564884 C239.27992279 65.26564884 125.09992279 65.26564884 7.45992279 65.26564884 Z M7.45992279 89.26564884 C7.45992279 91.24564884 7.45992279 93.22564884 7.45992279 95.26564884 C121.63992279 95.26564884 235.81992279 95.26564884 353.45992279 95.26564884 C353.45992279 93.28564884 353.45992279 91.30564884 353.45992279 89.26564884 C239.27992279 89.26564884 125.09992279 89.26564884 7.45992279 89.26564884 Z M7.45992279 114.26564884 C7.45992279 116.24564884 7.45992279 118.22564884 7.45992279 120.26564884 C121.63992279 120.26564884 235.81992279 120.26564884 353.45992279 120.26564884 C353.45992279 118.28564884 353.45992279 116.30564884 353.45992279 114.26564884 C239.27992279 114.26564884 125.09992279 114.26564884 7.45992279 114.26564884 Z " fill="#152241" transform="translate(36.540077209472656,-0.26564884185791016)"/>
<path d="M0 0 C1.3585045 -0.00707978 2.71700113 -0.01583332 4.07548523 -0.02610779 C7.72443156 -0.04838127 11.37293968 -0.04571459 15.0219276 -0.03678632 C18.08569915 -0.03163243 21.14939148 -0.03900427 24.21315485 -0.04625839 C31.44914153 -0.06318734 38.68491697 -0.05976268 45.92089844 -0.04296875 C53.34819532 -0.02605206 60.77490422 -0.04189132 68.20213693 -0.07419163 C74.61534741 -0.10100973 81.02837625 -0.10813087 87.4416371 -0.09967655 C91.25604889 -0.09478299 95.07010738 -0.09676648 98.8844738 -0.11746407 C102.4742355 -0.13601533 106.06316111 -0.12963043 109.65287971 -0.10526466 C111.57283499 -0.09798723 113.49283623 -0.11496003 115.41271973 -0.13308716 C128.96782509 0.01246612 140.79246863 4.41513142 150.89477539 13.53344727 C158.9702439 22.15129799 162.87831282 32.70605824 167.14477539 43.53344727 C167.60368164 44.68973633 168.06258789 45.84602539 168.53540039 47.03735352 C169.65836014 49.86814787 170.77806148 52.70018453 171.89477539 55.53344727 C172.69939209 55.38907227 173.50400879 55.24469727 174.33300781 55.09594727 C175.3988208 54.91032227 176.46463379 54.72469727 177.56274414 54.53344727 C178.61486084 54.34782227 179.66697754 54.16219727 180.75097656 53.97094727 C186.09427567 53.22735854 191.12470398 53.02297436 195.96508789 55.66235352 C200.41942463 59.08231499 202.93993054 62.99140964 203.89477539 68.53344727 C204.34184642 75.28312938 202.62387546 80.19003992 198.65258789 85.61938477 C196.01628285 88.49002803 193.42588071 89.90370635 189.89477539 91.53344727 C189.23477539 91.86344727 188.57477539 92.19344727 187.89477539 92.53344727 C188.1487207 93.50282227 188.40266602 94.47219727 188.66430664 95.47094727 C193.47937228 114.116121 196.04653093 132.07821293 196.16821289 151.34594727 C196.17353657 152.14070465 196.17886024 152.93546204 196.18434525 153.75430298 C196.21089672 157.95443754 196.23033515 162.15454411 196.24487305 166.35473633 C196.25823745 169.80747818 196.28616172 173.25963262 196.3269043 176.7121582 C196.37643448 180.91238747 196.40101606 185.11208283 196.40810013 189.31259155 C196.41476943 190.90088771 196.42987737 192.48917393 196.45399094 194.07730103 C196.58371037 203.13015104 196.36533136 210.85676448 190.89477539 218.53344727 C185.36918138 224.20445165 178.98908982 225.90600382 171.31884766 226.05297852 C170.41577881 226.0465332 169.51270996 226.04008789 168.58227539 226.03344727 C167.64891357 226.02700195 166.71555176 226.02055664 165.75390625 226.01391602 C157.67257257 225.79884769 151.7884352 224.54020092 146.01196289 218.59594727 C139.15732544 210.17909012 140.89477539 202.99463977 140.89477539 191.53344727 C84.46477539 191.53344727 28.03477539 191.53344727 -30.10522461 191.53344727 C-30.10522461 197.47344727 -30.10522461 203.41344727 -30.10522461 209.53344727 C-34.11250253 217.54800311 -36.82117117 221.51861618 -45.00683594 224.91162109 C-49.12091742 226.13076775 -53.28405423 226.00424177 -57.54272461 225.97094727 C-58.44571289 225.99092773 -59.34870117 226.0109082 -60.27905273 226.03149414 C-67.57704681 226.02620957 -72.75247267 224.36634742 -78.34741211 219.63891602 C-78.88624023 219.00598633 -79.42506836 218.37305664 -79.98022461 217.72094727 C-80.53452148 217.09575195 -81.08881836 216.47055664 -81.65991211 215.82641602 C-84.80686637 210.83381561 -85.3560448 205.4795354 -85.36401367 199.69042969 C-85.36751831 199.0453244 -85.37102295 198.40021912 -85.37463379 197.73556519 C-85.38337392 195.61990307 -85.37762187 193.50458109 -85.37084961 191.38891602 C-85.37220028 189.89504432 -85.37414414 188.40117306 -85.37664795 186.90730286 C-85.37959035 183.77621272 -85.37533683 180.64523694 -85.3659668 177.51416016 C-85.35468004 173.55492744 -85.36126517 169.5959665 -85.37283325 165.63674355 C-85.46895461 127.1193471 -85.46895461 127.1193471 -80.60522461 108.28344727 C-80.3925293 107.41333008 -80.17983398 106.54321289 -79.96069336 105.64672852 C-78.85829027 101.20330011 -77.63030423 96.85450619 -76.10522461 92.53344727 C-77.30147461 92.01782227 -78.49772461 91.50219727 -79.73022461 90.97094727 C-85.33084841 88.16070518 -88.78960283 84.2842928 -91.48022461 78.65844727 C-92.82997195 71.90971058 -92.8432293 66.3541471 -89.35913086 60.26000977 C-86.41831848 56.21066687 -82.85905841 54.44277519 -78.04272461 53.59594727 C-71.88221618 53.11070174 -65.99983341 54.92085722 -60.10522461 56.53344727 C-59.92866333 55.4850769 -59.92866333 55.4850769 -59.74853516 54.41552734 C-58.49467859 48.79815477 -56.07022958 43.5440722 -53.91772461 38.22094727 C-53.44786133 37.02276367 -52.97799805 35.82458008 -52.49389648 34.59008789 C-47.37370008 21.91183896 -39.66041213 10.75111508 -27.10522461 4.53344727 C-18.00709031 0.98588485 -9.70622628 -0.05106674 0 0 Z M-23.64331055 24.5690918 C-26.16280442 27.9545039 -27.70149179 31.55720628 -29.23022461 35.47094727 C-29.58785889 36.34976563 -29.94549316 37.22858398 -30.31396484 38.1340332 C-31.12216791 40.12309295 -31.92341358 42.11498883 -32.71899414 44.10913086 C-34.00293367 47.28076451 -35.32510028 50.43221167 -36.66516113 53.58033752 C-37.87770779 56.43298316 -39.07579005 59.29158793 -40.27191162 62.15115356 C-40.86432878 63.56127755 -41.46146643 64.96942859 -42.0635376 66.37545776 C-46.70317133 77.04605101 -46.70317133 77.04605101 -47.10522461 88.53344727 C-45.22901848 91.03505544 -43.86631158 92.15290378 -41.10522461 93.53344727 C-38.58495376 93.63548202 -36.0920582 93.6768339 -33.57133484 93.67388916 C-32.3918749 93.67834584 -32.3918749 93.67834584 -31.18858749 93.68289256 C-28.53928859 93.69160228 -25.89003476 93.69308972 -23.24072266 93.69458008 C-21.3470856 93.69920665 -19.45344948 93.7042311 -17.55981445 93.70962524 C-12.40480325 93.72276692 -7.24980508 93.72919767 -2.09477973 93.7336359 C1.1238035 93.73656385 4.34238315 93.74066813 7.56096458 93.74514008 C17.62512709 93.75881981 27.68928143 93.76848407 37.7534526 93.77234197 C49.38218803 93.77682371 61.01080598 93.79437503 72.63950568 93.82334256 C81.620444 93.84493997 90.60134922 93.85504521 99.58231324 93.85638309 C104.94973555 93.85743253 110.31704749 93.86336988 115.68444252 93.8812027 C120.73313557 93.89764977 125.7816349 93.89985526 130.83034515 93.89106369 C132.68430537 93.8902915 134.53827586 93.89465987 136.39221001 93.90452194 C138.9216838 93.91718929 141.45046609 93.91139325 143.97993469 93.90093994 C144.71495927 93.90899635 145.44998384 93.91705275 146.20728189 93.92535329 C150.61179534 93.88273313 153.40499379 93.26019509 156.89477539 90.53344727 C159.39678229 86.78043691 158.9909896 85.27653991 158.39584351 80.98620605 C157.57649823 76.97546128 156.10705417 73.3367476 154.50805664 69.58032227 C153.99881905 68.34720306 153.99881905 68.34720306 153.47929382 67.08917236 C152.39939162 64.4826301 151.30337791 61.88321172 150.20727539 59.28344727 C149.49077526 57.55599933 148.77527251 55.82813735 148.06079102 54.09985352 C146.04008221 49.22932285 143.97543924 44.3786137 141.89477539 39.53344727 C141.60826111 38.85822021 141.32174683 38.18299316 141.02655029 37.48730469 C140.26012246 35.68971962 139.47454694 33.90033303 138.68774414 32.11157227 C138.26388428 31.14123047 137.84002441 30.17088867 137.40332031 29.17114258 C134.83354409 24.67788115 131.21576922 21.4675747 126.83227539 18.78344727 C126.18129883 18.37610352 125.53032227 17.96875977 124.85961914 17.54907227 C121.17306923 15.64349975 117.77085052 15.40537597 113.65963745 15.38627625 C112.59999283 15.37912094 111.54034821 15.37196564 110.44859314 15.36459351 C108.71241478 15.36056015 108.71241478 15.36056015 106.94116211 15.35644531 C105.10632515 15.34658852 105.10632515 15.34658852 103.23442078 15.33653259 C99.18109898 15.31680184 95.12781674 15.30513218 91.07446289 15.29516602 C89.67548732 15.29111633 88.27651195 15.28699935 86.87753677 15.28281593 C80.30157805 15.26377149 73.72563048 15.24954074 67.1496495 15.24120396 C59.57732958 15.23144386 52.00530294 15.2051536 44.43308628 15.16470307 C38.56877654 15.13445949 32.70455046 15.11972719 26.8401643 15.11642295 C23.34320933 15.11408121 19.8465679 15.10523663 16.34969711 15.07996178 C12.44128993 15.05216859 8.53326275 15.05653734 4.62475586 15.06347656 C3.47944901 15.0506665 2.33414215 15.03785645 1.15412903 15.0246582 C-8.6160578 15.08767575 -16.90346198 17.13004795 -23.64331055 24.5690918 Z M-51.10522461 129.53344727 C-53.69753161 133.88687712 -53.43779246 138.55432429 -53.41772461 143.47094727 C-53.43383789 144.25663086 -53.44995117 145.04231445 -53.46655273 145.85180664 C-53.47070243 150.81069792 -52.86335898 154.24525295 -50.10522461 158.53344727 C-47.76220043 159.70495935 -46.33099721 159.6783351 -43.71899414 159.71044922 C-42.357155 159.72970207 -42.357155 159.72970207 -40.96780396 159.74934387 C-39.49281937 159.76042427 -39.49281937 159.76042427 -37.98803711 159.77172852 C-36.47498489 159.78383614 -36.47498489 159.78383614 -34.93136597 159.79618835 C-32.79451215 159.81003319 -30.65763617 159.82075355 -28.52075195 159.82861328 C-25.25030766 159.84584147 -21.98087008 159.88972624 -18.71069336 159.93383789 C-16.63648206 159.94396327 -14.56226215 159.95247986 -12.48803711 159.95922852 C-11.01912521 159.98549065 -11.01912521 159.98549065 -9.52053833 160.01228333 C-4.20963494 160.0325056 -4.20963494 160.0325056 0.50830078 157.85058594 C3.16308863 153.41378519 2.50773138 148.56717458 2.45727539 143.53344727 C2.48112305 142.44032227 2.5049707 141.34719727 2.52954102 140.22094727 C2.52760742 139.16907227 2.52567383 138.11719727 2.52368164 137.03344727 C2.52440674 136.07438477 2.52513184 135.11532227 2.52587891 134.12719727 C2.06004276 131.38954776 2.06004276 131.38954776 -0.02124023 129.21850586 C-4.40626223 126.82257317 -8.15702685 126.99598299 -13.07788086 127.07250977 C-14.51797768 127.07388443 -14.51797768 127.07388443 -15.98716736 127.07528687 C-18.01200317 127.08131632 -20.03683033 127.09704255 -22.06152344 127.12182617 C-25.16040911 127.15836102 -28.25809903 127.16284516 -31.35717773 127.16235352 C-33.32658911 127.1721842 -35.29599239 127.183841 -37.26538086 127.19750977 C-38.65455467 127.20084824 -38.65455467 127.20084824 -40.0717926 127.20425415 C-40.93626511 127.21701385 -41.80073761 127.22977356 -42.69140625 127.24291992 C-43.82794395 127.25435532 -43.82794395 127.25435532 -44.98744202 127.26602173 C-47.41926297 127.57310284 -49.02446985 128.24991 -51.10522461 129.53344727 Z M109.89477539 129.53344727 C107.842271 133.63845605 108.62157705 138.8966167 108.58227539 143.40844727 C108.55327148 144.5105957 108.52426758 145.61274414 108.49438477 146.74829102 C108.48600586 147.80918945 108.47762695 148.87008789 108.46899414 149.96313477 C108.45441162 150.93492676 108.4398291 151.90671875 108.42480469 152.90795898 C108.74607577 155.59408419 108.74607577 155.59408419 110.27685547 157.84838867 C114.39110194 160.49657753 118.41383271 160.10458639 123.20727539 160.06469727 C124.71608276 160.07043762 124.71608276 160.07043762 126.25537109 160.07629395 C128.3802999 160.07901378 130.50526215 160.07164767 132.63012695 160.05493164 C135.88316472 160.03352367 139.13399384 160.05473159 142.38696289 160.08032227 C144.45207193 160.077679 146.5171796 160.07255406 148.58227539 160.06469727 C149.55527588 160.07279419 150.52827637 160.08089111 151.53076172 160.0892334 C156.8570611 160.07486343 156.8570611 160.07486343 161.47680664 157.68774414 C164.42914684 153.20230166 164.11173359 148.88785927 164.14477539 143.72094727 C164.16540039 142.92624023 164.18602539 142.1315332 164.20727539 141.31274414 C164.24024874 136.32964711 163.76258309 132.80165639 160.89477539 128.53344727 C158.12176806 127.60911149 156.44171901 127.40248845 153.57861328 127.38818359 C152.71083755 127.38180374 151.84306183 127.37542389 150.94898987 127.36885071 C150.01457565 127.36773788 149.08016144 127.36662506 148.11743164 127.36547852 C146.67308998 127.36048592 146.67308998 127.36048592 145.1995697 127.35539246 C143.16283648 127.35032926 141.12609497 127.34798394 139.08935547 127.34814453 C135.97292424 127.34595824 132.85684709 127.3277966 129.74047852 127.30883789 C127.7619641 127.30590382 125.78344801 127.30391912 123.80493164 127.30297852 C122.87254166 127.295793 121.94015167 127.28860748 120.97950745 127.28120422 C119.67311562 127.28581917 119.67311562 127.28581917 118.34033203 127.29052734 C117.19474571 127.28838982 117.19474571 127.28838982 116.02601624 127.28620911 C113.57732602 127.57027351 111.98232782 128.23526627 109.89477539 129.53344727 Z " fill="#152241" transform="translate(161.105224609375,156.466552734375)"/>
</svg>
