<?xml version="1.0" encoding="UTF-8"?>
<svg version="1.1" xmlns="http://www.w3.org/2000/svg" width="512" height="512">
<path d="M0 0 C1.6728154 -0.00956978 1.6728154 -0.00956978 3.37942505 -0.01933289 C4.59081146 -0.02044571 5.80219788 -0.02155853 7.05029297 -0.02270508 C8.29366425 -0.02603348 9.53703552 -0.02936188 10.81808472 -0.03279114 C13.45607057 -0.03786367 16.09395351 -0.04063092 18.73193359 -0.04003906 C21.42829115 -0.03995798 24.12447822 -0.04686744 26.82080078 -0.06054688 C30.70985087 -0.07891846 34.59870373 -0.08377841 38.48779297 -0.08520508 C39.687034 -0.09239059 40.88627502 -0.09957611 42.12185669 -0.10697937 C48.35500172 -0.0900702 53.70001493 0.33946558 59.66748047 2.14526367 C61.00327317 2.43307177 62.34170608 2.70905331 63.68310547 2.96948242 C80.7285944 6.40189165 96.648311 12.00615981 111.96875 20.23706055 C113.48082733 21.04547211 115.00874013 21.82410529 116.53857422 22.59838867 C151.74191853 40.80160386 180.27326596 72.3009861 196.66748047 108.14526367 C197.18955078 109.28479492 197.71162109 110.42432617 198.24951172 111.59838867 C204.34217016 125.35699963 208.36411316 139.05915673 211.18385315 153.78308105 C211.48130919 155.23594666 211.80675367 156.68381364 212.17805481 158.11958313 C213.8306327 164.58667937 214.02118006 170.85691026 214.07373047 177.50854492 C214.08766846 178.68596756 214.10160645 179.8633902 214.1159668 181.07649231 C214.15068917 184.87039511 214.16341235 188.66370845 214.16748047 192.45776367 C214.16949463 193.74737 214.17150879 195.03697632 214.17358398 196.36566162 C214.15372744 215.09067048 213.50338157 232.23348898 207.66748047 250.14526367 C207.36777344 251.14412598 207.06806641 252.14298828 206.75927734 253.17211914 C202.84335842 266.21063264 197.58325979 278.18285508 190.87255859 290.01611328 C189.60006008 292.26438304 188.36339494 294.53066931 187.12451172 296.79760742 C178.61165267 312.10852876 166.94208511 325.61777998 155.53076172 338.81713867 C150.36501683 344.80089405 145.21418397 350.81502602 140.72998047 357.33276367 C140.04935547 358.26088867 139.36873047 359.18901367 138.66748047 360.14526367 C138.00748047 360.14526367 137.34748047 360.14526367 136.66748047 360.14526367 C136.44189453 360.66862305 136.21630859 361.19198242 135.98388672 361.73120117 C134.19565766 365.0105055 131.92054736 367.8548765 129.60498047 370.77026367 C129.11835938 371.38764404 128.63173828 372.00502441 128.13037109 372.64111328 C124.45525494 377.26076303 120.59314892 381.66528078 116.54248047 385.96166992 C114.56034612 388.13811571 114.56034612 388.13811571 113.04248047 390.92260742 C112.36185547 392.02282227 112.36185547 392.02282227 111.66748047 393.14526367 C111.00748047 393.14526367 110.34748047 393.14526367 109.66748047 393.14526367 C109.29429687 393.98250977 109.29429687 393.98250977 108.91357422 394.83666992 C107.45133649 397.54570597 105.69904033 399.71490687 103.72998047 402.08276367 C102.92818359 403.04956055 102.12638672 404.01635742 101.30029297 405.01245117 C98.1100991 408.8180856 94.89429846 412.60205309 91.67871094 416.38623047 C88.36091391 420.29975177 85.13795075 424.27840563 81.94873047 428.29760742 C74.26603861 437.88781695 66.39421149 447.32652817 58.42993164 456.68359375 C55.78756597 459.79614868 53.20417705 462.94615037 50.66748047 466.14526367 C47.46957842 470.16907018 44.21592536 474.14125327 40.91748047 478.08276367 C40.45728516 478.63899414 39.99708984 479.19522461 39.52294922 479.76831055 C33.53498769 486.88228817 33.53498769 486.88228817 27.83935547 487.68432617 C14.71250197 488.18527192 14.71250197 488.18527192 10.10498047 484.27026367 C8.33935547 482.31713867 8.33935547 482.31713867 6.66748047 480.14526367 C6.05388672 479.40791992 5.44029297 478.67057617 4.80810547 477.91088867 C3.4707029 476.27390793 2.15652678 474.61775195 0.86279297 472.94604492 C-1.60524742 469.79731724 -4.17374398 466.7507151 -6.77001953 463.70776367 C-11.699241 457.91366248 -16.53218899 452.0467453 -21.33251953 446.14526367 C-22.83195045 444.31146488 -24.33195411 442.47813424 -25.83251953 440.64526367 C-28.06249993 437.92144679 -30.2908794 435.19645566 -32.51220703 432.46557617 C-36.58918673 427.4600317 -40.71311148 422.50058405 -44.89501953 417.58276367 C-50.13722691 411.41423699 -55.19658622 405.11397596 -60.21533203 398.76245117 C-64.44199403 393.4406217 -68.77735005 388.22650858 -73.1796875 383.05029297 C-77.63524944 377.80612913 -82.00341319 372.49449606 -86.33251953 367.14526367 C-87.07630859 366.25838867 -87.82009766 365.37151367 -88.58642578 364.45776367 C-90.33251953 362.14526367 -90.33251953 362.14526367 -90.33251953 360.14526367 C-90.99251953 360.14526367 -91.65251953 360.14526367 -92.33251953 360.14526367 C-93.67236328 358.63354492 -93.67236328 358.63354492 -95.27001953 356.45776367 C-98.29738259 352.44855313 -101.44711759 348.58912379 -104.70751953 344.77026367 C-121.96223979 324.49082329 -137.66233023 304.11765656 -149.36450195 280.10131836 C-150.0022449 278.81264334 -150.65577448 277.53164333 -151.32592773 276.25952148 C-162.52039649 254.83548341 -168.46611529 228.18100625 -168.50048828 204.04370117 C-168.50381668 203.20416901 -168.50714508 202.36463684 -168.51057434 201.49966431 C-168.51560295 199.73326153 -168.51798394 197.96684938 -168.51782227 196.20043945 C-168.51999698 193.54776672 -168.53816418 190.89551875 -168.55712891 188.24291992 C-168.61017917 173.06832709 -166.86101632 158.95488636 -163.08251953 144.20776367 C-162.77459473 142.99427246 -162.46666992 141.78078125 -162.14941406 140.53051758 C-158.82748283 127.7466331 -154.54724556 115.83142624 -148.33251953 104.14526367 C-147.90326172 103.26225586 -147.47400391 102.37924805 -147.03173828 101.46948242 C-140.24835212 88.19899594 -132.37910871 76.13722568 -122.33251953 65.14526367 C-121.16364321 63.77214159 -119.99669953 62.39736971 -118.83251953 61.02026367 C-91.11333561 29.76246053 -51.94874355 7.98631159 -10.57861328 1.68823242 C-0.49716906 0.00192587 -0.49716906 0.00192587 0 0 Z M-30.67626953 136.36010742 C-34.46820857 140.33606703 -37.54239486 144.41854861 -40.33251953 149.14526367 C-40.86490234 150.04631836 -41.39728516 150.94737305 -41.94580078 151.87573242 C-52.16490695 170.66570183 -52.86167048 190.63522662 -47.29736328 210.91870117 C-41.14325786 229.81910631 -27.60108118 244.90014338 -10.07666016 254.03881836 C7.30588163 262.58478065 28.15362256 263.54077867 46.66748047 258.14526367 C66.36852347 250.9882976 81.70438699 236.84194159 90.94091797 218.11401367 C95.48914084 208.17986707 97.51383442 197.02340372 97.66748047 186.14526367 C97.68037109 185.31510742 97.69326172 184.48495117 97.70654297 183.62963867 C96.88923395 163.13404317 86.16664628 144.9733601 71.66748047 131.14526367 C40.64640496 105.20564359 -2.27798104 108.60084004 -30.67626953 136.36010742 Z " fill="#EC0000" transform="translate(243.33251953125,12.854736328125)"/>
</svg>
