<?xml version="1.0" encoding="UTF-8"?>
<svg version="1.1" xmlns="http://www.w3.org/2000/svg" width="453" height="601">
<path d="M0 0 C1.78325684 -0.00956978 1.78325684 -0.00956978 3.60253906 -0.01933289 C4.89514648 -0.02044571 6.18775391 -0.02155853 7.51953125 -0.02270508 C8.86035192 -0.02591983 10.20117225 -0.02928406 11.54199219 -0.03279114 C14.35987153 -0.03878777 17.1777202 -0.0406308 19.99560547 -0.04003906 C23.58185463 -0.03993811 27.16790281 -0.05351825 30.75410461 -0.07081127 C33.52875645 -0.08201768 36.30336131 -0.08395554 39.07803345 -0.08342934 C41.03535433 -0.08516372 42.99266054 -0.09596089 44.94995117 -0.10697937 C52.01078011 -0.08908599 58.47591931 0.46756643 65.33203125 2.14526367 C66.73465732 2.43667422 68.1381721 2.72387834 69.54296875 3.00463867 C83.79500732 6.01372258 98.44559404 9.34790272 111.57421875 15.80932617 C113.73247048 16.85482489 115.8782474 17.8107108 118.08984375 18.73120117 C127.09292021 22.49031226 135.1372134 26.8100958 143.33203125 32.14526367 C144.21890625 32.68666992 145.10578125 33.22807617 146.01953125 33.78588867 C161.3368942 43.17689096 174.54979456 54.58185018 187.33203125 67.14526367 C187.95859619 67.75789063 188.58516113 68.37051758 189.23071289 69.00170898 C194.36174401 74.06489289 198.85541631 79.49706292 203.33203125 85.14526367 C203.7811084 85.70681152 204.23018555 86.26835938 204.69287109 86.84692383 C206.08070884 88.58595369 207.45786182 90.33292024 208.83203125 92.08276367 C209.482323 92.89801514 209.482323 92.89801514 210.14575195 93.72973633 C212.26066494 96.45321161 213.86452976 98.6807437 214.33203125 102.14526367 C214.99203125 102.14526367 215.65203125 102.14526367 216.33203125 102.14526367 C217.75694763 104.75761037 219.18113883 107.37031325 220.6015625 109.98510742 C221.73088999 112.04746846 222.87356361 114.1025933 224.03125 116.14916992 C224.56363281 117.09663086 225.09601563 118.0440918 225.64453125 119.02026367 C226.13566406 119.88393555 226.62679688 120.74760742 227.1328125 121.63745117 C228.34052862 124.16303342 228.91200332 126.38790385 229.33203125 129.14526367 C229.99203125 129.14526367 230.65203125 129.14526367 231.33203125 129.14526367 C231.99203125 131.78526367 232.65203125 134.42526367 233.33203125 137.14526367 C233.99203125 137.14526367 234.65203125 137.14526367 235.33203125 137.14526367 C235.60466797 138.08885742 235.60466797 138.08885742 235.8828125 139.05151367 C237.25012522 143.70738878 238.72976699 148.25913056 240.453125 152.79760742 C248.96945112 175.54566075 251.56797347 197.43775382 251.68212891 221.61865234 C251.69851043 224.14413787 251.72555645 226.66958062 251.76416016 229.19482422 C252.12442643 252.97396475 249.39529185 275.54735316 241.39453125 298.02026367 C240.99041016 299.22038086 240.58628906 300.42049805 240.16992188 301.65698242 C237.3887966 309.74195447 234.04050437 317.44635964 230.33203125 325.14526367 C230.00114502 325.85038086 229.67025879 326.55549805 229.3293457 327.28198242 C223.90478261 338.82725823 216.985813 348.99767173 209.453125 359.24682617 C207.11380333 362.44346831 204.81477468 365.66693242 202.51953125 368.89526367 C198.46503625 374.5940904 194.33611663 380.2347723 190.17675781 385.85742188 C187.09940265 390.03755135 184.19155896 394.2914846 181.453125 398.70385742 C181.08316406 399.17952148 180.71320313 399.65518555 180.33203125 400.14526367 C179.67203125 400.14526367 179.01203125 400.14526367 178.33203125 400.14526367 C178.0896875 400.85424805 177.84734375 401.56323242 177.59765625 402.29370117 C176.14272804 405.57178017 174.31789882 407.9643239 172.08203125 410.77026367 C167.79904609 416.20971833 163.66526304 421.74198201 159.58203125 427.33276367 C154.25634911 434.60407363 148.797022 441.7559411 143.24243164 448.85351562 C138.51982019 454.88911612 133.90394768 460.99443113 129.33203125 467.14526367 C122.07503342 476.87099721 114.71231536 486.51297688 107.33203125 496.14526367 C105.01885669 499.16558116 102.70654107 502.18655455 100.39453125 505.20776367 C99.87536133 505.88540771 99.35619141 506.56305176 98.82128906 507.26123047 C96.31897261 510.5309186 93.82973937 513.80936208 91.36328125 517.10620117 C87.65278872 522.06380627 83.87618891 526.97034068 80.09960938 531.87768555 C77.50375735 535.26183902 74.96810642 538.655507 72.5546875 542.17260742 C71.82121094 543.15358398 71.08773438 544.13456055 70.33203125 545.14526367 C69.67203125 545.14526367 69.01203125 545.14526367 68.33203125 545.14526367 C68.11933594 545.82202148 67.90664063 546.4987793 67.6875 547.19604492 C65.89628943 551.09334745 63.37660127 554.0521941 60.64453125 557.33276367 C56.36243138 562.55554047 52.33649728 567.82499848 48.63671875 573.48510742 C47.99089844 574.30688477 47.99089844 574.30688477 47.33203125 575.14526367 C46.67203125 575.14526367 46.01203125 575.14526367 45.33203125 575.14526367 C45.13480469 575.80526367 44.93757812 576.46526367 44.734375 577.14526367 C42.76260402 581.36342555 39.88465113 584.60287028 36.89453125 588.14526367 C35.7261539 589.53857615 34.56070417 590.93434975 33.3984375 592.33276367 C32.58076904 593.3130957 32.58076904 593.3130957 31.74658203 594.31323242 C30.1671555 596.25315433 30.1671555 596.25315433 28.734375 599.14526367 C27.33203125 601.14526367 27.33203125 601.14526367 24.88671875 601.76635742 C21.28941175 600.89178279 20.47736077 599.26340729 18.45703125 596.20776367 C15.3339798 591.61224689 12.07879618 587.23892663 8.58203125 582.92260742 C7.33203125 581.14526367 7.33203125 581.14526367 7.33203125 579.14526367 C6.67203125 579.14526367 6.01203125 579.14526367 5.33203125 579.14526367 C4.36046302 577.74942984 3.39795596 576.34623072 2.48730469 574.90991211 C0.50481682 571.88171636 -1.7877454 569.09775433 -4.04296875 566.27026367 C-5.01614539 565.03890394 -5.98880492 563.80713534 -6.9609375 562.57495117 C-7.4254834 561.98681641 -7.8900293 561.39868164 -8.36865234 560.79272461 C-15.66796875 551.53759738 -15.66796875 551.53759738 -15.66796875 549.14526367 C-16.32796875 549.14526367 -16.98796875 549.14526367 -17.66796875 549.14526367 C-19.19140625 547.26635742 -19.19140625 547.26635742 -21.04296875 544.58276367 C-24.31267305 539.96636461 -27.72368401 535.5329495 -31.29296875 531.14526367 C-36.5959127 524.59641665 -41.61472171 517.86460216 -46.58959961 511.06445312 C-52.39412525 503.13339766 -58.35238923 495.33810717 -64.4453125 487.62573242 C-69.3058407 481.47295402 -74.06813509 475.28829746 -78.64453125 468.91870117 C-80.91384884 465.80824655 -83.25034024 462.75330464 -85.60546875 459.70776367 C-89.53903146 454.62034594 -93.42349886 449.49962006 -97.2734375 444.34838867 C-98.98085874 442.06439941 -100.69145759 439.78307589 -102.40625 437.50463867 C-108.54072046 429.34971646 -114.6203564 421.15638816 -120.66455078 412.93432617 C-123.82919788 408.6317397 -127.01169458 404.34498661 -130.23046875 400.08276367 C-135.66163937 392.86822359 -140.91373266 385.52432118 -146.18896484 378.19555664 C-148.13011523 375.50460568 -150.08575681 372.8245538 -152.04296875 370.14526367 C-155.64973284 365.18975167 -159.18809654 360.1906728 -162.66796875 355.14526367 C-163.25191406 354.3022168 -163.83585937 353.45916992 -164.4375 352.59057617 C-165.26314453 351.38014648 -165.26314453 351.38014648 -166.10546875 350.14526367 C-166.59917969 349.42338867 -167.09289062 348.70151367 -167.6015625 347.95776367 C-168.66796875 346.14526367 -168.66796875 346.14526367 -168.66796875 344.14526367 C-169.32796875 344.14526367 -169.98796875 344.14526367 -170.66796875 344.14526367 C-172.7593616 340.19113932 -174.83957262 336.23123274 -176.91796875 332.27026367 C-177.50449219 331.16166992 -178.09101563 330.05307617 -178.6953125 328.91088867 C-187.66796875 311.77210707 -187.66796875 311.77210707 -187.66796875 305.14526367 C-188.32796875 305.14526367 -188.98796875 305.14526367 -189.66796875 305.14526367 C-189.86132812 304.40920898 -190.0546875 303.6731543 -190.25390625 302.91479492 C-190.64449219 301.45106445 -190.64449219 301.45106445 -191.04296875 299.95776367 C-191.29820312 298.99483398 -191.5534375 298.0319043 -191.81640625 297.03979492 C-192.60865955 294.16963199 -192.60865955 294.16963199 -193.70703125 291.58666992 C-194.67246261 289.13384634 -195.20448776 286.86079135 -195.66796875 284.27026367 C-196.1812718 281.41959854 -196.79526176 278.70613768 -197.6027832 275.92041016 C-201.94438839 260.53323597 -202.10691317 245.53013607 -202.00415039 229.63183594 C-201.98037027 225.69144485 -201.98363314 221.75172495 -201.99023438 217.8112793 C-201.98466174 215.27807218 -201.97755448 212.74486787 -201.96875 210.21166992 C-201.96966141 209.0479335 -201.97057281 207.88419708 -201.97151184 206.68519592 C-201.91319669 199.92147013 -201.21110273 193.7237466 -199.66796875 187.14526367 C-199.36460622 185.27212043 -199.07084657 183.39735673 -198.79296875 181.52026367 C-197.56683902 173.94594615 -195.60686889 166.5620273 -193.66796875 159.14526367 C-193.00796875 159.14526367 -192.34796875 159.14526367 -191.66796875 159.14526367 C-191.60609375 158.09338867 -191.54421875 157.04151367 -191.48046875 155.95776367 C-190.00357161 144.561706 -183.78013324 133.98133886 -178.56396484 123.89648438 C-177.77302585 122.35059735 -177.01477786 120.78807815 -176.26171875 119.22338867 C-169.01443671 105.22618709 -159.57295276 92.3586397 -149.66796875 80.14526367 C-149.12495117 79.47301758 -148.58193359 78.80077148 -148.02246094 78.1081543 C-147.49040039 77.46555664 -146.95833984 76.82295898 -146.41015625 76.16088867 C-145.93175293 75.58113281 -145.45334961 75.00137695 -144.96044922 74.40405273 C-143.66796875 73.14526367 -143.66796875 73.14526367 -141.66796875 73.14526367 C-141.33152344 72.31961914 -141.33152344 72.31961914 -140.98828125 71.47729492 C-134.24555185 59.56779951 -119.47221681 50.03363253 -108.66796875 42.14526367 C-107.85457031 41.54713867 -107.04117188 40.94901367 -106.203125 40.33276367 C-90.322804 28.91795723 -73.05234668 19.78406681 -54.66796875 13.14526367 C-53.33422038 12.62549409 -52.000831 12.10480138 -50.66796875 11.58276367 C-37.6292836 6.73434504 -24.29632792 3.31042145 -10.50390625 1.57495117 C-0.11191234 0.00040664 -0.11191234 0.00040664 0 0 Z M-29.66796875 117.14526367 C-29.66796875 117.80526367 -29.66796875 118.46526367 -29.66796875 119.14526367 C-31.31796875 119.80526367 -32.96796875 120.46526367 -34.66796875 121.14526367 C-34.66796875 121.80526367 -34.66796875 122.46526367 -34.66796875 123.14526367 C-35.25964844 123.41338867 -35.85132813 123.68151367 -36.4609375 123.95776367 C-50.04356425 131.26593806 -58.46618034 150.71694523 -62.95385742 164.77148438 C-65.06707856 171.86174114 -66.5067432 178.7173721 -66.66796875 186.14526367 C-66.70664063 186.98702148 -66.7453125 187.8287793 -66.78515625 188.69604492 C-67.08113772 199.79535019 -66.07181565 211.86370175 -61.66796875 222.14526367 C-61.24515625 223.14944336 -60.82234375 224.15362305 -60.38671875 225.18823242 C-55.14670708 237.07581209 -48.66011272 246.78576746 -39.66796875 256.14526367 C-39.03503906 256.8181543 -38.40210938 257.49104492 -37.75 258.18432617 C-34.32066367 261.74235724 -30.94816773 264.65677589 -26.66796875 267.14526367 C-26.00796875 267.14526367 -25.34796875 267.14526367 -24.66796875 267.14526367 C-24.66796875 267.80526367 -24.66796875 268.46526367 -24.66796875 269.14526367 C-17.16336694 273.07437457 -9.70268286 276.4588851 -1.66796875 279.14526367 C-0.77078125 279.48557617 0.12640625 279.82588867 1.05078125 280.17651367 C26.47303569 287.68213165 51.71842448 281.10522001 74.33203125 269.14526367 C74.33203125 268.48526367 74.33203125 267.82526367 74.33203125 267.14526367 C75.05777344 266.9003418 75.78351563 266.65541992 76.53125 266.40307617 C81.62868272 264.11385255 85.31171038 259.94976977 89.33203125 256.14526367 C90.028125 255.52522461 90.72421875 254.90518555 91.44140625 254.26635742 C107.48806451 239.40715188 115.4121627 216.85776963 116.30810547 195.41357422 C116.90521257 169.13293565 108.44652918 146.81764263 90.546875 127.41870117 C87.6175453 124.41187597 84.65063343 121.71887353 81.33203125 119.14526367 C80.67203125 119.14526367 80.01203125 119.14526367 79.33203125 119.14526367 C79.33203125 118.48526367 79.33203125 117.82526367 79.33203125 117.14526367 C71.36255638 111.23663501 62.71181706 107.28379251 53.33203125 104.14526367 C51.96691406 103.68313477 51.96691406 103.68313477 50.57421875 103.21166992 C42.06326043 100.49180709 33.83674604 99.96419825 24.95703125 99.95776367 C24.0753125 99.94551758 23.19359375 99.93327148 22.28515625 99.9206543 C4.61798861 99.88179689 -15.66300332 106.25251278 -29.66796875 117.14526367 Z " fill="#152341" transform="translate(201.66796875,-0.145263671875)"/>
</svg>
