<?xml version="1.0" encoding="UTF-8"?>
<svg version="1.1" xmlns="http://www.w3.org/2000/svg" width="403" height="403">
<path d="M0 0 C1.09164821 -0.00311998 2.18329642 -0.00623996 3.30802488 -0.00945449 C6.94893588 -0.01740209 10.58967872 -0.0111234 14.23059082 -0.00482178 C16.84782509 -0.00753307 19.46505859 -0.01109478 22.08229065 -0.01544189 C28.44286373 -0.02431531 34.80338949 -0.02242305 41.16396439 -0.01661661 C46.33530128 -0.01209204 51.50662495 -0.01149066 56.67796326 -0.01366425 C57.78376856 -0.01412394 57.78376856 -0.01412394 58.91191337 -0.01459293 C60.40972698 -0.01523241 61.90754059 -0.01588084 63.4053542 -0.01653811 C77.4363459 -0.0222354 91.46731142 -0.01569297 105.49829882 -0.00493738 C117.52642619 0.00399758 129.55451494 0.00244537 141.5826416 -0.0067749 C155.56488636 -0.01748817 169.54710819 -0.02168613 183.52935648 -0.01555037 C185.02152919 -0.01491331 186.51370191 -0.01428456 188.00587463 -0.01366425 C189.10701885 -0.01320142 189.10701885 -0.01320142 190.2304084 -0.01272924 C195.39298601 -0.01100547 200.55554904 -0.01391054 205.71812439 -0.01862335 C212.67191159 -0.02483204 219.62562479 -0.02038478 226.57940483 -0.00883484 C229.12992164 -0.00619266 231.68044458 -0.00694579 234.23095894 -0.01136017 C237.7153344 -0.01683437 241.1994772 -0.00995846 244.68383789 0 C245.69036644 -0.00446144 246.69689498 -0.00892289 247.73392439 -0.01351953 C255.07136251 0.02708629 263.10378914 0.24058298 269.15441895 4.87896729 C269.76930176 5.32498291 270.38418457 5.77099854 271.0177002 6.23052979 C276.93429457 12.79326188 277.42168005 19.23376405 277.34985352 27.67816162 C277.35921346 29.37666394 277.35921346 29.37666394 277.36876249 31.10947943 C277.38468505 34.89418356 277.37209035 38.67824303 277.35949707 42.46295166 C277.36271856 45.18019434 277.37189687 47.89740986 277.3807373 50.61463928 C277.39849826 57.22304442 277.39469343 63.83126755 277.38308674 70.43967974 C277.37404311 75.81176597 277.37283243 81.18380129 277.37718201 86.55589294 C277.37779494 87.32127431 277.37840787 88.08665567 277.37903938 88.8752304 C277.38031831 90.43022129 277.38161517 91.98521217 277.38292974 93.54020303 C277.39432844 108.11198562 277.38123302 122.68366744 277.35972828 137.2554335 C277.34185792 149.75125172 277.34496223 162.24692128 277.36340332 174.74273682 C277.38482262 189.26334724 277.39322987 203.78386941 277.38095427 218.30449343 C277.37968011 219.85367615 277.37842262 221.40285888 277.37718201 222.95204163 C277.37625635 224.09530104 277.37625635 224.09530104 277.375312 225.26165661 C277.37186227 230.62558544 277.37767929 235.98945816 277.38710022 241.3533783 C277.39833338 247.89268817 277.39525264 254.43180605 277.37397724 260.97109401 C277.36348411 264.30591133 277.36147742 267.64014472 277.37257385 270.97500038 C277.38350424 274.59357686 277.3697941 278.21125378 277.34985352 281.82977295 C277.36323785 283.40332243 277.36323785 283.40332243 277.37689257 285.00866079 C277.29877325 292.31729439 276.00203364 297.59191044 271.0958252 303.27740479 C270.53766113 303.72342041 269.97949707 304.16943604 269.40441895 304.62896729 C268.84883301 305.09045166 268.29324707 305.55193604 267.7208252 306.02740479 C263.91171187 308.51401931 260.44872811 309.50360226 255.92301464 309.51123619 C254.4681313 309.52090953 254.4681313 309.52090953 252.98385638 309.53077829 C251.92608487 309.52768108 250.86831335 309.52458388 249.77848816 309.52139282 C248.08383076 309.52818949 248.08383076 309.52818949 246.35493785 309.53512347 C242.56108749 309.54780553 238.76737998 309.54614462 234.97351074 309.54449463 C232.25671852 309.5493899 229.53993638 309.5572257 226.82315063 309.56484985 C220.20436064 309.58145794 213.58560628 309.58695932 206.9667972 309.58807461 C201.58606798 309.5890252 196.20535051 309.59313603 190.82462502 309.59947586 C175.56618973 309.61708794 160.30778257 309.62631481 145.04933705 309.62481491 C144.22686808 309.624735 143.40439911 309.62465509 142.55700684 309.62457275 C141.73353254 309.62449099 140.91005823 309.62440923 140.06163017 309.62432499 C126.71716018 309.62351215 113.37280309 309.64264932 100.02836575 309.67084949 C86.32337038 309.69958285 72.61843006 309.71338953 58.91340381 309.71166193 C51.22028862 309.71099818 43.52729177 309.71648416 35.83420372 309.73801804 C29.28386055 309.75623584 22.73368936 309.76057236 16.18333181 309.74699919 C12.84244591 309.74047223 9.50215893 309.74251812 6.1612606 309.75770569 C2.53597879 309.77311877 -1.08843646 309.76387466 -4.71369934 309.7484436 C-5.76477869 309.75873073 -6.81585804 309.76901786 -7.89878827 309.77961671 C-14.78621274 309.71482713 -20.53923553 308.69694838 -25.67929441 303.80668008 C-29.40898887 299.52894227 -31.40594221 296.05827815 -31.41534996 290.3900547 C-31.42179885 289.40695655 -31.42824775 288.42385839 -31.43489206 287.41096938 C-31.43179485 286.33335699 -31.42869765 285.2557446 -31.42550659 284.14547729 C-31.4300377 282.99881478 -31.43456882 281.85215226 -31.43923724 280.67074239 C-31.44971807 277.48747791 -31.45120527 274.30435525 -31.44884849 271.12107897 C-31.44844065 267.68812976 -31.45947628 264.25521437 -31.46896362 260.82228088 C-31.48558155 254.09640788 -31.49107352 247.37056994 -31.49218838 240.64467813 C-31.49313845 235.17809552 -31.49724668 229.71152448 -31.50358963 224.24494553 C-31.52120396 208.74912074 -31.53042817 193.25332367 -31.52892868 177.7574888 C-31.52884877 176.921981 -31.52876886 176.08647319 -31.52868652 175.22564697 C-31.52860476 174.38912009 -31.528523 173.55259321 -31.52843876 172.69071703 C-31.52762574 159.13143775 -31.54676703 145.57226953 -31.57496326 132.01302238 C-31.60368076 118.09336609 -31.61750419 104.17376399 -31.6157757 90.25407732 C-31.61511142 82.43805081 -31.62062032 74.62214074 -31.64213181 66.8061409 C-31.6603287 60.15177937 -31.66470329 53.49758704 -31.65111296 46.84321143 C-31.64457573 43.44797508 -31.64449275 40.05306349 -31.66181946 36.65785789 C-31.67719166 32.97708773 -31.66801571 29.29717547 -31.65255737 25.61642456 C-31.6628445 24.54327362 -31.67313163 23.47012267 -31.68373048 22.364452 C-31.6158081 15.06595195 -30.34833659 11.88666702 -25.5526123 6.42584229 C-25.03054199 5.95662354 -24.50847168 5.48740479 -23.97058105 5.00396729 C-23.46140137 4.52443604 -22.95222168 4.04490479 -22.4276123 3.55084229 C-15.68483897 -0.30217105 -7.54141256 -0.03342735 0 0 Z M9.84191895 42.25396729 C9.84191895 116.83396729 9.84191895 191.41396729 9.84191895 268.25396729 C84.42191895 268.25396729 159.00191895 268.25396729 235.84191895 268.25396729 C235.84191895 193.67396729 235.84191895 119.09396729 235.84191895 42.25396729 C161.26191895 42.25396729 86.68191895 42.25396729 9.84191895 42.25396729 Z " fill="#152241" transform="translate(31.1580810546875,93.74603271484375)"/>
<path d="M0 0 C5.66176258 5.66176258 1 15.99305857 1 24 C77.89 24 154.78 24 234 24 C234 16.74 234 9.48 234 2 C235.485 0.515 235.485 0.515 237 -1 C241.0409308 -0.8284457 243.05611764 0.55044805 245.87231445 3.33886719 C246.59268387 4.04340027 247.31305328 4.74793335 248.05525208 5.47381592 C248.8169017 6.24042542 249.57855133 7.00703491 250.36328125 7.796875 C251.15526413 8.5826593 251.94724701 9.3684436 252.76322937 10.17803955 C254.43318049 11.8408916 256.09801169 13.50889903 257.75805664 15.18164062 C260.30479477 17.74225279 262.87460458 20.2779652 265.44726562 22.8125 C267.06655649 24.43083979 268.68444395 26.05058529 270.30078125 27.671875 C271.45843742 28.80964386 271.45843742 28.80964386 272.63948059 29.97039795 C273.3440892 30.68753967 274.04869781 31.4046814 274.7746582 32.14355469 C275.71134087 33.08167999 275.71134087 33.08167999 276.66694641 34.03875732 C278.40816719 36.60051217 278.49618905 37.95818965 278 41 C276.62898254 43.00593567 276.62898254 43.00593567 274.68286133 44.96411133 C273.95823196 45.7045015 273.2336026 46.44489166 272.48701477 47.2077179 C271.69337021 47.9912413 270.89972565 48.77476471 270.08203125 49.58203125 C269.27263596 50.39621017 268.46324066 51.2103891 267.62931824 52.04924011 C265.91454334 53.76741777 264.19343683 55.47929606 262.46655273 57.18530273 C259.82260101 59.8025012 257.20634083 62.44525718 254.59179688 65.09179688 C252.92347584 66.75681389 251.25360445 68.42027922 249.58203125 70.08203125 C248.79850784 70.87567581 248.01498444 71.66932037 247.2077179 72.48701477 C246.46732773 73.21164413 245.72693756 73.9362735 244.96411133 74.68286133 C243.99481438 75.64619133 243.99481438 75.64619133 243.00593567 76.62898254 C240.45752963 78.3707678 239.02534869 78.50246091 236 78 C231.36272995 71.04409493 234 61.35995747 234 53 C157.11 53 80.22 53 1 53 C1 60.59 1 68.18 1 76 C-1 78 -1 78 -3.59399414 78.11010742 C-8.72736223 76.43700695 -11.7381533 73.01525341 -15.49609375 69.23828125 C-16.28903336 68.45486862 -17.08197296 67.67145599 -17.89894104 66.86430359 C-19.56842136 65.20697296 -21.23145658 63.54312811 -22.88842773 61.87329102 C-25.43209924 59.31792559 -28.00612623 56.79620889 -30.58398438 54.27539062 C-32.20246167 52.66079733 -33.81906451 51.04432244 -35.43359375 49.42578125 C-36.20738876 48.67242996 -36.98118378 47.91907867 -37.77842712 47.14289856 C-42.85695785 41.95135362 -42.85695785 41.95135362 -43.453125 37.98632812 C-41.23426645 33.42633522 -37.93133575 30.29923483 -34.31640625 26.79296875 C-33.54570297 26.02696854 -32.77499969 25.26096832 -31.98094177 24.47175598 C-29.51959958 22.03174082 -27.0411486 19.60991944 -24.5625 17.1875 C-22.89669925 15.53820674 -21.23197251 13.88782797 -19.56835938 12.23632812 C-16.52640597 9.22833724 -13.4841344 6.22077685 -10.42407227 3.23120117 C-9.80975845 2.62974777 -9.19544464 2.02829437 -8.56251526 1.40861511 C-5.51272579 -1.34078494 -3.85495899 -0.98845102 0 0 Z " fill="#152241" transform="translate(64,1)"/>
<path d="M0 0 C2.80779465 1.02274885 4.24542836 2.14087965 6.36756897 4.23190308 C7.44812309 5.28386116 7.44812309 5.28386116 8.55050659 6.35707092 C9.31215622 7.12054337 10.07380585 7.88401581 10.85853577 8.67062378 C11.65051865 9.45403641 12.44250153 10.23744904 13.25848389 11.04460144 C14.92852006 12.703159 16.59334919 14.36697377 18.25331116 16.03561401 C20.79843443 18.58706179 23.36903434 21.11071587 25.94252014 23.6335144 C27.56197897 25.24842765 29.17987192 26.86491301 30.79603577 28.48312378 C31.56780655 29.23647507 32.33957733 29.98982635 33.13473511 30.76600647 C38.36681847 36.09059381 38.36681847 36.09059381 39.03895569 40.37301636 C38.49525452 42.90890503 38.49525452 42.90890503 37.49525452 43.90890503 C29.57525452 43.90890503 21.65525452 43.90890503 13.49525452 43.90890503 C13.49525452 120.79890503 13.49525452 197.68890503 13.49525452 276.90890503 C21.08525452 276.90890503 28.67525452 276.90890503 36.49525452 276.90890503 C38.49525452 278.90890503 38.49525452 278.90890503 39.09925842 281.50509644 C38.14764856 286.86780649 34.62312527 289.63782662 30.83119202 293.36984253 C30.04636444 294.16041046 29.26153687 294.95097839 28.45292664 295.76550293 C26.79065288 297.4318571 25.12078803 299.09066816 23.44398499 300.74240112 C20.87953314 303.27474259 18.34862675 305.83745768 15.81947327 308.40499878 C14.20029982 310.02020734 12.57926611 311.63355366 10.95619202 313.24484253 C10.19970367 314.01347626 9.44321533 314.78210999 8.6638031 315.57403564 C5.69677842 318.4631543 3.46754824 320.59722073 -0.50694275 321.87130737 C-5.417217 320.29493299 -8.39042017 316.81593393 -11.93052673 313.17453003 C-13.11282112 311.99017365 -13.11282112 311.99017365 -14.31900024 310.78189087 C-15.98091097 309.11092322 -17.63553021 307.43267641 -19.28330994 305.74777222 C-21.80950103 303.16681737 -24.35887518 300.610678 -26.91294861 298.05734253 C-28.52439746 296.43114704 -30.13447137 294.80358768 -31.74302673 293.17453003 C-32.50649918 292.40771912 -33.26997162 291.6409082 -34.05657959 290.8508606 C-34.75788498 290.13041565 -35.45919037 289.4099707 -36.18174744 288.66769409 C-36.80096573 288.03704041 -37.42018402 287.40638672 -38.0581665 286.75662231 C-39.67020303 284.69756588 -40.36856409 283.52706126 -40.50474548 280.90890503 C-39.01974548 278.92890503 -39.01974548 278.92890503 -37.50474548 276.90890503 C-29.91474548 276.90890503 -22.32474548 276.90890503 -14.50474548 276.90890503 C-14.50474548 200.01890503 -14.50474548 123.12890503 -14.50474548 43.90890503 C-22.42474548 43.90890503 -30.34474548 43.90890503 -38.50474548 43.90890503 C-40.50474548 40.90890503 -40.50474548 40.90890503 -40.34416199 38.96305847 C-39.30928038 36.43057834 -37.99177045 34.9944039 -36.07408142 33.04244995 C-34.98725067 31.92690987 -34.98725067 31.92690987 -33.87846375 30.78883362 C-33.08998047 29.99701187 -32.30149719 29.20519012 -31.48912048 28.38937378 C-30.68114014 27.57140823 -29.87315979 26.75344269 -29.04069519 25.91069031 C-27.32973256 24.18453997 -25.61467292 22.46244244 -23.89585876 20.74411011 C-21.26307539 18.10475573 -18.65519978 15.44236543 -16.04771423 12.77804565 C-14.38382309 11.10535472 -12.71850543 9.43408133 -11.05162048 7.76437378 C-10.27123413 6.96243088 -9.49084778 6.16048798 -8.68681335 5.33424377 C-7.94965088 4.60631119 -7.2124884 3.8783786 -6.45298767 3.12838745 C-5.48821503 2.15720222 -5.48821503 2.15720222 -4.50395203 1.16639709 C-2.50474548 -0.09109497 -2.50474548 -0.09109497 0 0 Z " fill="#152241" transform="translate(364.50474548339844,60.091094970703125)"/>
</svg>
