<?xml version="1.0" encoding="UTF-8"?>
<svg version="1.1" xmlns="http://www.w3.org/2000/svg" width="327" height="437">
<path d="M0 0 C1.51198245 0.92769093 2.99402274 1.90644482 4.4375 2.9375 C5.49324219 3.62972656 5.49324219 3.62972656 6.5703125 4.3359375 C18.3692304 13.17391022 21.9669123 30.85615599 26.0625 44.25 C26.61351998 46.0179099 27.1655994 47.78548995 27.71875 49.55273438 C30.38879755 58.11414276 32.97213974 66.69898186 35.48509216 75.30767822 C38.438397 85.39983598 41.54247611 95.44674442 44.625 105.5 C44.9532074 106.57144257 45.28141479 107.64288513 45.61956787 108.74679565 C50.459784 124.54606659 55.33974813 140.33222495 60.2890625 156.09765625 C60.63275879 157.20173828 60.97645508 158.30582031 61.33056641 159.44335938 C62.13418016 161.98004222 62.95884997 164.50346252 63.80615234 167.02539062 C66.16646612 174.13820434 68.23703982 180.72934046 67.8125 188.3125 C67.79832031 189.034375 67.78414063 189.75625 67.76953125 190.5 C67.62746466 195.55757068 67.62746466 195.55757068 66.4375 197.9375 C67.4538748 197.93289104 68.4702496 197.92828207 69.51742363 197.92353344 C94.26439847 197.81246508 119.01134093 197.73033777 143.7585125 197.67843914 C155.7261428 197.65267332 167.6936083 197.61755355 179.66113281 197.56030273 C190.09377534 197.51041841 200.52629849 197.4781972 210.95905697 197.46705753 C216.48159193 197.46054736 222.00378542 197.44527997 227.52621078 197.40884972 C232.72844585 197.37481103 237.93020008 197.36446304 243.13253593 197.37196159 C245.03762999 197.37059057 246.9427408 197.36070525 248.84773827 197.34147263 C261.09971327 197.22388725 269.85452226 197.82280797 279.375 206.3125 C284.26144151 211.18693551 285.80739283 216.85776292 285.95703125 223.54760742 C285.95058594 224.31564697 285.94414062 225.08368652 285.9375 225.875 C285.93105469 226.67333252 285.92460937 227.47166504 285.91796875 228.29418945 C285.72895223 234.34955743 284.8729866 238.56583335 280.4375 242.9375 C279.78652344 243.58074219 279.13554687 244.22398437 278.46484375 244.88671875 C273.37680862 249.57531935 273.37680862 249.57531935 270.37841797 250.73144531 C268.24331086 251.77256825 268.24331086 251.77256825 267.72729492 254.05029297 C267.62521729 254.91799316 267.52313965 255.78569336 267.41796875 256.6796875 C267.28696777 257.65341309 267.1559668 258.62713867 267.02099609 259.63037109 C266.82497803 261.2055249 266.82497803 261.2055249 266.625 262.8125 C263.29771542 285.40230142 254.86045279 306.78195031 239.4375 323.9375 C238.58285156 324.92234375 237.72820312 325.9071875 236.84765625 326.921875 C227.91977424 337.07496635 217.7474111 344.63075331 206.4375 351.9375 C206.85 352.5459375 207.2625 353.154375 207.6875 353.78125 C219.26830717 371.35926088 230.48235759 393.6304769 231.4375 414.9375 C231.54964844 416.73960937 231.54964844 416.73960937 231.6640625 418.578125 C231.71709232 419.92694842 231.76653246 421.27591744 231.8125 422.625 C231.86148437 423.88699219 231.91046875 425.14898437 231.9609375 426.44921875 C231.28608378 430.94656482 229.96000031 432.12979134 226.4375 434.9375 C223.1344223 435.56949902 223.1344223 435.56949902 219.30212402 435.57914734 C218.59492517 435.58765286 217.88772632 435.59615838 217.15909719 435.60492164 C214.79500737 435.62716509 212.43249561 435.61376409 210.06835938 435.6003418 C208.37131118 435.60875611 206.67427233 435.61928173 204.97724915 435.63175964 C200.37181884 435.65882389 195.76692989 435.65410305 191.16145515 435.64205909 C187.3168367 435.63493058 183.47231855 435.64342503 179.62770796 435.65196449 C170.55884244 435.67192088 161.49024052 435.66634222 152.42138672 435.64428711 C143.06385297 435.6219167 133.70700884 435.63952915 124.34954023 435.67733639 C116.31540399 435.70855755 108.28148139 435.71649034 100.24729204 435.70538265 C95.44878621 435.69889135 90.65067848 435.70091801 85.85221863 435.72470665 C81.34080746 435.74593339 76.83037076 435.73801462 72.31902122 435.70761299 C70.66341523 435.70127695 69.00773384 435.70516736 67.35218239 435.72002411 C65.09129325 435.73866882 62.83360472 435.7203385 60.57287598 435.69267273 C59.30821754 435.69170939 58.04355911 435.69074606 56.7405777 435.68975353 C52.07569655 434.6273585 51.04721104 432.89320763 48.4375 428.9375 C47.90519164 426.18619348 47.65081877 423.99955791 47.6171875 421.25 C47.58816345 420.51881454 47.5591394 419.78762909 47.52923584 419.0342865 C47.46891782 417.47526357 47.41867328 415.91582311 47.37774658 414.35617065 C47.26773893 410.27822113 47.07560426 406.20402832 46.890625 402.12890625 C46.85591095 401.32715469 46.8211969 400.52540314 46.78543091 399.69935608 C46.34441882 390.00727498 45.12779328 380.48706875 43.4375 370.9375 C43.23302246 369.7604248 43.23302246 369.7604248 43.02441406 368.55957031 C39.62277897 349.5402665 33.40614341 331.43597837 26.74203491 313.35366821 C18.97310291 292.26398883 12.46411935 271.77998258 12.0625 249.125 C12.02511719 248.30580078 11.98773438 247.48660156 11.94921875 246.64257812 C11.88465329 242.21267024 11.98127558 240.51038115 14.8359375 236.92578125 C18.73980599 233.94219407 20.68310473 233.82309154 25.5625 233.875 C26.65820312 233.88402344 27.75390625 233.89304688 28.8828125 233.90234375 C30.14738281 233.91974609 30.14738281 233.91974609 31.4375 233.9375 C31.1075 233.2775 30.7775 232.6175 30.4375 231.9375 C30.34043287 229.79345831 30.30771464 227.64623249 30.3125 225.5 C30.30863281 223.76943359 30.30863281 223.76943359 30.3046875 222.00390625 C30.4375 218.9375 30.4375 218.9375 31.4375 215.9375 C30.32375 215.6075 29.21 215.2775 28.0625 214.9375 C18.40270608 211.25513175 11.62092595 204.23282533 7.4375 194.9375 C6.51313665 192.22364818 5.63716506 189.51774976 4.80078125 186.77734375 C4.27158432 185.07291646 3.74210817 183.36857584 3.21240234 181.66430664 C2.92798279 180.74457062 2.64356323 179.82483459 2.3505249 178.87722778 C0.69098752 173.53390348 -1.00353637 168.20161404 -2.69140625 162.8671875 C-3.79600375 159.36718612 -4.8998355 155.86694378 -6.00366211 152.36669922 C-6.75241024 149.9934627 -7.50176115 147.62041628 -8.25170898 145.24755859 C-12.07668724 133.14387167 -15.87987907 121.04052629 -19.41967773 108.85009766 C-21.47662061 101.77380506 -23.65396236 94.73330174 -25.8125 87.6875 C-26.28890388 86.13029098 -26.76530355 84.57308067 -27.24169922 83.01586914 C-34.21321308 59.91632568 -34.21321308 59.91632568 -41.5625 36.9375 C-41.84094438 33.71330612 -41.8399649 30.48490761 -41.875 27.25 C-41.91850586 25.93999023 -41.91850586 25.93999023 -41.96289062 24.60351562 C-42.03589774 17.08378235 -40.15424998 11.94953376 -35.25 6.25 C-25.41393595 -2.21359 -12.42100026 -5.91938294 0 0 Z M-20.5 18.8125 C-23.41776986 23.23336343 -23.08451528 26.75808123 -22.5625 31.9375 C-21.64770905 36.07327759 -20.33850295 40.04641095 -19 44.0625 C-18.38845033 45.9652653 -17.77697327 47.86805446 -17.16711426 49.7713623 C-16.47892963 51.91369005 -15.78472867 54.05401434 -15.09033203 56.19433594 C-12.46170566 64.32471353 -9.93236379 72.48668682 -7.38754272 80.64358521 C-6.4294556 83.71327408 -5.46940894 86.7823448 -4.5090332 89.85131836 C-0.17416731 103.71369965 4.10674521 117.59202451 8.35183716 131.48214722 C9.30320352 134.59458615 10.25582569 137.70663827 11.20874023 140.81860352 C13.68166883 148.89815732 16.15434009 156.97756544 18.58325195 165.07048035 C19.21329444 167.16685985 19.84726889 169.26200156 20.48291016 171.35668945 C21.2133717 173.7668378 21.93643071 176.17925006 22.64990234 178.59448242 C24.73976419 185.4530096 26.65171561 190.5315953 32.1875 195.3125 C36.52736719 197.48243359 38.61896792 197.62586173 43.4375 196.9375 C46.60416667 195.10416667 46.60416667 195.10416667 48.4375 191.9375 C48.90234892 185.88922293 47.89538986 181.22307555 45.93359375 175.5390625 C45.37629519 173.85096391 44.8202067 172.1624655 44.26513672 170.47363281 C43.96726257 169.57745239 43.66938843 168.68127197 43.36248779 167.75793457 C41.73094318 162.78309612 40.20069564 157.77704975 38.66015625 152.7734375 C37.98255071 150.58182865 37.3048133 148.39026057 36.62695312 146.19873047 C35.91791499 143.90333692 35.20893192 141.60792636 34.5 139.3125 C34.13366455 138.12706604 33.7673291 136.94163208 33.38989258 135.72027588 C28.36478276 119.45814555 23.36268965 103.18910554 18.38565063 86.91220093 C17.44572529 83.83939019 16.50466474 80.76692942 15.56323242 77.69458008 C10.62124585 61.56273466 10.62124585 61.56273466 8.32659912 53.93939209 C7.70241207 51.86836782 7.07462249 49.79847659 6.4453125 47.72900391 C5.72715741 45.36497354 5.01542695 42.99897406 4.3125 40.63037109 C0.48881496 27.53400436 0.48881496 27.53400436 -8.5625 17.9375 C-12.85849552 15.78950224 -16.54380362 16.28726827 -20.5 18.8125 Z M51.4375 219.9375 C49.79098765 223.2305247 49.2239363 225.0191761 50.0625 228.625 C51.67610974 231.3387982 52.68315245 232.3736874 55.4375 233.9375 C58.26726338 234.23086739 60.87615303 234.35107597 63.70542908 234.33190918 C64.96708156 234.34104584 64.96708156 234.34104584 66.25422198 234.35036707 C69.07708864 234.36703725 71.89950622 234.36221556 74.72241211 234.35742188 C76.74442515 234.36475985 78.766434 234.37334528 80.78843689 234.38308716 C86.28426521 234.40533983 91.77994377 234.40823198 97.27581096 234.40633965 C101.8609846 234.40622012 106.44612629 234.41477671 111.03129107 234.42311716 C121.84664727 234.44236455 132.66192628 234.44523009 143.47729492 234.43847656 C154.64161505 234.43183355 165.80560497 234.45470771 176.96985811 234.49179029 C186.54957486 234.5224574 196.12918523 234.5338506 205.7089501 234.52995348 C211.43298473 234.52788299 217.15676242 234.53341161 222.88075066 234.55784607 C228.26282498 234.58006132 233.64436128 234.57827873 239.02643776 234.55791855 C241.00295298 234.55449932 242.97950406 234.55963669 244.95597076 234.57390213 C247.65214167 234.59202106 250.34647303 234.57940113 253.04258728 234.55895996 C253.82682994 234.57147781 254.61107261 234.58399566 255.4190802 234.59689283 C259.39625483 234.53213767 261.24597536 234.08588691 264.42702579 231.621315 C266.7107237 229.00846045 266.7107237 229.00846045 267 225.375 C266.35663721 221.44333849 265.59301602 220.28159761 262.4375 217.9375 C258.72016516 216.69838839 255.27525159 216.79274467 251.40371704 216.79705811 C250.16172218 216.79260142 250.16172218 216.79260142 248.89463651 216.7880547 C246.11024883 216.77935833 243.3259041 216.77785867 240.54150391 216.77636719 C238.54919848 216.77173973 236.55689395 216.76671516 234.56459045 216.76132202 C229.14518407 216.74819021 223.72579007 216.74175169 218.30637026 216.73731136 C214.92244963 216.73438226 211.53853241 216.73027779 208.15461349 216.72580719 C197.57253651 216.712131 186.99046727 216.7024646 176.40838206 216.6986053 C164.18254381 216.6941223 151.95681723 216.67656365 139.73101294 216.6476047 C130.2872134 216.62600982 120.84344534 216.61590221 111.39962137 216.61456418 C105.75611289 216.6135147 100.11270938 216.6075763 94.46922684 216.58974457 C89.16197901 216.57330154 83.85491547 216.57109004 78.54765129 216.57988358 C76.5985496 216.58065594 74.64943816 216.57628511 72.70036125 216.56642532 C70.04176976 216.5537638 67.38383672 216.55955092 64.72525024 216.57000732 C63.95199831 216.56195092 63.17874637 216.55389452 62.38206255 216.54559398 C57.90094955 216.58688091 54.97086397 217.11211906 51.4375 219.9375 Z M32.4375 253.9375 C32.29500046 261.05431017 32.29500046 261.05431017 33.28515625 267.671875 C33.47424561 268.48156738 33.66333496 269.29125977 33.8581543 270.12548828 C34.06996338 270.97095215 34.28177246 271.81641602 34.5 272.6875 C34.83608276 274.05430908 34.83608276 274.05430908 35.17895508 275.44873047 C38.58833435 288.90808523 43.26346647 301.88954229 48.19189453 314.85620117 C54.98434319 332.80332615 59.84282081 350.53962915 63.1875 369.4375 C63.38641846 370.51942627 63.58533691 371.60135254 63.7902832 372.71606445 C66.16928585 387.09724264 66.48961875 401.24534056 67.4375 415.9375 C114.9575 415.9375 162.4775 415.9375 211.4375 415.9375 C207.89570981 394.68675885 200.3769943 369.60568613 182.4375 355.9375 C180.32537496 352.76931244 180.10593536 350.80530748 179.87890625 347.0703125 C180.77552724 343.64685053 182.76209105 342.18654896 185.4375 339.9375 C187.86246287 338.53311628 190.38306713 337.3975459 192.9375 336.25 C216.3620267 325.08102684 234.11071233 304.33995399 242.91015625 279.98828125 C245.86329697 271.23850541 247.09992203 263.30054581 248.4375 253.9375 C177.1575 253.9375 105.8775 253.9375 32.4375 253.9375 Z " fill="#152241" transform="translate(41.5625,2.0625)"/>
<path d="M0 0 C3.69182432 0.04702961 4.59956988 0.26844533 7.75 2.5 C9.985548 5.71360025 10.47097822 7.50237015 10.75 11.375 C7.85358759 19.77459598 1.55353562 26.82162703 -4.25 33.375 C-4.80300781 34.01179688 -5.35601562 34.64859375 -5.92578125 35.3046875 C-13.92320105 43.91729344 -27.13653492 53.98241298 -39.125 54.5625 C-43.32247675 52.96745884 -44.91684182 51.19289521 -47.25 47.375 C-48 43.875 -48 43.875 -47.25 40.375 C-42.79783786 35.39281856 -37.15015589 32.55521769 -31.37988281 29.32958984 C-22.17886954 24.1432509 -17.26334621 17.99331805 -11.25 9.375 C-10.11172972 7.82774084 -8.9667774 6.28535463 -7.8125 4.75 C-7.33941406 4.11835938 -6.86632812 3.48671875 -6.37890625 2.8359375 C-4.33774727 0.19443764 -3.36163494 0.14470614 0 0 Z " fill="#152241" transform="translate(254.25,272.625)"/>
</svg>
