<?xml version="1.0" encoding="UTF-8"?>
<svg version="1.1" xmlns="http://www.w3.org/2000/svg" width="512" height="512">
<path d="M0 0 C0.97088562 0.00215515 1.94177124 0.0043103 2.94207764 0.00653076 C17.27751026 0.05757173 31.28525803 0.44028152 45.375 3.3125 C46.40109375 3.51649414 47.4271875 3.72048828 48.484375 3.93066406 C70.86443497 8.4849002 91.84618785 15.31044296 112.375 25.3125 C113.17679687 25.70308594 113.97859375 26.09367187 114.8046875 26.49609375 C136.12619525 37.01884434 155.35448108 50.52352854 172.65625 66.8046875 C174.57943486 68.57865974 176.49453578 70.25450639 178.515625 71.90625 C180.8100781 73.83710124 182.71239466 75.65243993 184.625 77.9375 C186.55563919 80.21304641 188.49619329 82.44022076 190.55078125 84.60546875 C202.64264915 97.37020655 212.91455825 111.91442664 221.375 127.3125 C222.07471924 128.5806958 222.07471924 128.5806958 222.78857422 129.87451172 C241.60630173 164.26386342 254.24865077 202.38048454 254.61328125 241.9296875 C254.6230751 242.81651215 254.63286896 243.70333679 254.64295959 244.61703491 C255.18508299 306.47712651 238.79868761 366.24910629 198.375 414.3125 C197.96233887 414.81394531 197.54967773 415.31539063 197.12451172 415.83203125 C185.82986391 429.55427099 173.52802257 442.5099889 159.375 453.3125 C158.19889253 454.24047212 157.02313448 455.1688872 155.84765625 456.09765625 C145.56440989 464.11798636 134.6834423 470.84163785 123.375 477.3125 C122.41158691 477.87662598 122.41158691 477.87662598 121.42871094 478.45214844 C85.24011757 499.59359218 42.32786631 508.79609076 0.75 508.625 C-0.17253571 508.62317719 -1.09507141 508.62135437 -2.04556274 508.61947632 C-16.1109967 508.57276146 -29.78211857 507.98040079 -43.625 505.3125 C-44.52492676 505.15152832 -45.42485352 504.99055664 -46.35205078 504.82470703 C-66.77166176 501.12851245 -87.40370311 495.15823132 -105.89575195 485.61206055 C-114.12652221 481.56486356 -122.73422858 484.93029118 -131.20654297 486.99633789 C-132.91058289 487.40620689 -132.91058289 487.40620689 -134.64904785 487.82435608 C-137.10590331 488.41566811 -139.56230829 489.00885433 -142.01830673 489.6037159 C-145.91026352 490.54558077 -149.80371757 491.48107902 -153.69778442 492.41416931 C-164.76598524 495.06745906 -175.83219499 497.72891961 -186.89501953 500.40454102 C-193.01587672 501.8848392 -199.13864428 503.35695171 -205.26358902 504.82024759 C-208.49698049 505.59312783 -211.72888782 506.37151243 -214.95910263 507.15757942 C-218.56521838 508.03479555 -222.17444616 508.89792015 -225.78466797 509.75805664 C-226.839534 510.01830627 -227.89440002 510.27855591 -228.98123169 510.54669189 C-243.90521163 514.05852311 -243.90521163 514.05852311 -250.6875 510.875 C-253.93893249 506.57471833 -253.90325421 501.6749416 -253.29144287 496.48052406 C-252.70916005 493.21168056 -252.03912617 489.97277902 -251.3359375 486.7277832 C-250.95335785 484.88221329 -250.95335785 484.88221329 -250.56304932 482.99935913 C-250.00979125 480.33956426 -249.45174388 477.68135163 -248.8850708 475.02443886 C-247.98866282 470.82025993 -247.11280614 466.61195778 -246.23974609 462.40287781 C-244.54210587 454.2321728 -242.82444886 446.06574334 -241.10409546 437.89979553 C-238.91276151 427.4951119 -236.72875775 417.08893883 -234.56643867 406.67818326 C-233.69728325 402.49705624 -232.81732165 398.31839729 -231.92878723 394.14134753 C-231.24884124 390.93232413 -230.5826321 387.72044286 -229.9140625 384.5090332 C-229.66577698 383.35720047 -229.41749146 382.20536774 -229.16168213 381.01863098 C-228.94284363 379.95479187 -228.72400513 378.89095276 -228.49853516 377.7948761 C-228.20760483 376.41589378 -228.20760483 376.41589378 -227.91079712 375.00905323 C-227.25734704 368.84362048 -229.51752364 364.05491266 -232.125 358.625 C-240.78402815 339.79533329 -246.91104664 319.68905493 -250.625 299.3125 C-250.78726074 298.45382324 -250.94952148 297.59514648 -251.11669922 296.71044922 C-256.14568492 268.85640765 -255.99948582 237.09274878 -250.625 209.3125 C-250.32698486 207.76151611 -250.32698486 207.76151611 -250.02294922 206.17919922 C-240.43099953 157.96079145 -217.72106046 113.75199106 -183.625 78.3125 C-183.02526367 77.68553223 -182.42552734 77.05856445 -181.80761719 76.41259766 C-172.96892655 67.22027043 -163.93065414 58.82510932 -153.625 51.3125 C-152.96918945 50.8282959 -152.31337891 50.3440918 -151.63769531 49.84521484 C-128.6725397 32.94949927 -103.8455014 19.92088987 -76.625 11.3125 C-75.90683105 11.07837402 -75.18866211 10.84424805 -74.44873047 10.60302734 C-66.11084759 7.8945185 -57.73131778 5.7971161 -49.125 4.125 C-47.9349939 3.8926062 -47.9349939 3.8926062 -46.72094727 3.65551758 C-31.13341567 0.79008222 -15.82159371 -0.06330127 0 0 Z M-120.375 96.8125 C-121.08462891 97.34649414 -121.79425781 97.88048828 -122.52539062 98.43066406 C-126.66486959 101.60995461 -130.42665226 104.95664889 -134.04199219 108.72290039 C-135.65892478 110.34656605 -137.35164734 111.80037942 -139.125 113.25 C-143.06915505 116.58061982 -146.32805464 120.35206148 -149.625 124.3125 C-150.34945312 125.17230469 -151.07390625 126.03210938 -151.8203125 126.91796875 C-172.95688508 152.31768054 -188.21479225 182.78663105 -194.625 215.3125 C-194.77453125 216.0653125 -194.9240625 216.818125 -195.078125 217.59375 C-203.71333681 263.44970239 -195.22254425 310.77349181 -172.75390625 351.39477539 C-172.20476562 352.42594482 -171.655625 353.45711426 -171.08984375 354.51953125 C-170.34142212 355.87268433 -170.34142212 355.87268433 -169.57788086 357.25317383 C-167.10281566 365.19963603 -170.6457784 374.77622097 -172.32347298 382.73513222 C-172.79377421 384.96667274 -173.2587832 387.19926114 -173.72251892 389.43217468 C-174.7062184 394.16408807 -175.69643872 398.89462383 -176.6875 403.625 C-177.84012344 409.12752889 -178.99003604 414.63059829 -180.13339043 420.13506126 C-180.59104816 422.33156606 -181.05348394 424.52702943 -181.51612854 426.7224884 C-181.79622157 428.06795515 -182.07609493 429.41346765 -182.35571289 430.7590332 C-182.60140518 431.93101761 -182.84709747 433.10300201 -183.10023499 434.3105011 C-183.73979609 437.46128875 -183.73979609 437.46128875 -183.625 441.3125 C-172.68266984 439.10493328 -161.80434713 436.68166747 -150.94921875 434.078125 C-149.75958527 433.7932019 -148.56995178 433.50827881 -147.3442688 433.21472168 C-142.40588754 432.03005565 -137.46825297 430.84242467 -132.5324707 429.64697266 C-128.88113275 428.76385615 -125.22786386 427.88913943 -121.57421875 427.015625 C-120.46173264 426.74381409 -119.34924652 426.47200317 -118.20304871 426.19195557 C-117.16368668 425.94459656 -116.12432465 425.69723755 -115.0534668 425.44238281 C-114.14702927 425.22350403 -113.24059174 425.00462524 -112.3066864 424.77911377 C-107.04666384 423.86386919 -103.357984 424.05746604 -98.66796875 426.62109375 C-97.7332373 427.11665771 -96.79850586 427.61222168 -95.83544922 428.12280273 C-94.83787598 428.65977783 -93.84030273 429.19675293 -92.8125 429.75 C-64.06134388 444.62333823 -33.22003796 452.78323152 -0.8125 452.6875 C-0.10766479 452.68695618 0.59717041 452.68641235 1.32336426 452.68585205 C49.06615415 452.51858234 97.4798144 435.09828895 132.62890625 402.203125 C133.76612377 401.05362651 134.89283934 399.89354394 136.00390625 398.71875 C137.375 397.3125 137.375 397.3125 139.875 395.375 C143.49221274 392.39079949 146.35647497 388.88892362 149.375 385.3125 C150.14070313 384.43464844 150.90640625 383.55679687 151.6953125 382.65234375 C166.76083521 365.10738548 178.32332878 344.96762102 186.375 323.3125 C186.82488281 322.11625 187.27476562 320.92 187.73828125 319.6875 C190.33535468 312.35458679 192.29693993 304.94550755 194.0625 297.375 C194.26504395 296.51817627 194.46758789 295.66135254 194.67626953 294.77856445 C197.66030568 281.43253122 198.78843468 268.09848713 198.75 254.4375 C198.74968277 253.37932571 198.74968277 253.37932571 198.74935913 252.29977417 C198.62137765 209.03172397 183.87651642 167.98787364 157.875 133.5625 C157.34092529 132.85270996 156.80685059 132.14291992 156.2565918 131.41162109 C153.07725618 127.27242199 149.73071642 123.51071845 145.96459961 119.89550781 C144.34093395 118.27857522 142.88712058 116.58585266 141.4375 114.8125 C138.10656428 110.86797086 134.33402215 107.61168512 130.375 104.3125 C129.1375 103.260625 129.1375 103.260625 127.875 102.1875 C103.45973309 81.74681142 75.15613075 67.74825078 44.1875 60.5625 C42.90709839 60.26436401 42.90709839 60.26436401 41.60083008 59.96020508 C28.08419764 56.97767377 14.79208168 55.9010544 1 55.9375 C0.21841522 55.93804382 -0.56316956 55.93858765 -1.36843872 55.93914795 C-44.71236071 56.07685787 -85.87274386 70.73590212 -120.375 96.8125 Z " fill="#FFFFFF" transform="translate(255.625,-0.3125)"/>
<path d="M0 0 C5.71981172 4.2745488 8.06776993 10.78966594 10.88671875 17.11328125 C11.59320557 18.67804199 11.59320557 18.67804199 12.31396484 20.27441406 C13.8262855 23.63345797 15.32627557 26.99780355 16.82421875 30.36328125 C17.34129395 31.51957031 17.85836914 32.67585938 18.39111328 33.8671875 C19.91597869 37.2801404 21.434357 40.69587753 22.94921875 44.11328125 C23.42238525 45.17772461 23.89555176 46.24216797 24.38305664 47.33886719 C24.81996826 48.33176758 25.25687988 49.32466797 25.70703125 50.34765625 C26.09262207 51.22131836 26.47821289 52.09498047 26.87548828 52.99511719 C29.56011126 59.69631196 29.4750067 65.48311475 26.82714844 72.27197266 C25.16520092 75.73746498 22.80755752 78.51757418 20.32421875 81.42578125 C15.45102908 87.17149161 10.92268851 93.08233684 11.29296875 101.07421875 C13.35589526 109.96300504 20.07160506 117.18784982 26.19921875 123.59765625 C28.24703557 125.75517754 30.18823864 127.93820637 32.12109375 130.1953125 C35.86624234 134.49818457 39.90268454 138.41486474 44.07421875 142.30078125 C44.82437256 143.00170898 45.57452637 143.70263672 46.34741211 144.42480469 C51.98572488 149.65739182 57.73265703 154.66146107 63.82421875 159.36328125 C64.41525391 159.82686035 65.00628906 160.29043945 65.61523438 160.76806641 C83.9649082 176.16166781 83.9649082 176.16166781 105.94921875 182.30078125 C113.80107524 180.40113855 118.55038043 174.81189452 123.88085938 169.140625 C128.11984812 164.75406042 132.11752262 160.72906502 138.41729736 160.10739136 C145.85028496 160.05160399 152.28290403 161.1315275 159.3984375 163.21484375 C160.44771927 163.51135834 161.49700104 163.80787292 162.57807922 164.1133728 C164.7776717 164.73951183 166.97503404 165.37353502 169.17016602 166.01513672 C172.50752233 166.98705915 175.85322145 167.92468671 179.20117188 168.859375 C181.35084417 169.47583258 183.49995379 170.09425638 185.6484375 170.71484375 C186.63615646 170.99010895 187.62387543 171.26537415 188.64152527 171.54898071 C196.35841335 173.8423776 204.13884264 176.95468421 208.38671875 184.17578125 C210.54950683 189.45258364 210.83770087 194.22148668 209.08203125 199.6640625 C201.30548454 217.00519402 184.98639377 233.77246044 167.38671875 240.67578125 C137.30398142 250.52027254 103.11730114 241.94363906 75.58496094 228.24951172 C37.11498825 208.3852275 1.67548613 176.92669123 -24.17578125 142.36328125 C-24.8092749 141.53111084 -24.8092749 141.53111084 -25.45556641 140.68212891 C-46.24975195 113.28940427 -59.52189736 81.02694862 -54.87841797 46.12841797 C-54.14283333 42.28813155 -52.86464033 38.87711642 -51.17578125 35.36328125 C-50.48162109 33.90728516 -50.48162109 33.90728516 -49.7734375 32.421875 C-43.19864272 20.09212538 -31.31120612 4.64974369 -18.61328125 -1.69921875 C-11.68963673 -3.58748544 -6.40993152 -3.26543681 0 0 Z " fill="#FFFFFF" transform="translate(183.17578125,133.63671875)"/>
</svg>
