<?xml version="1.0" encoding="UTF-8"?>
<svg version="1.1" xmlns="http://www.w3.org/2000/svg" width="579" height="134">
<path d="M0 0 C0.88429688 0.40605469 1.76859375 0.81210938 2.6796875 1.23046875 C4.90932515 2.36071759 6.93436417 3.59377869 9 5 C9.7940625 5.53882813 10.588125 6.07765625 11.40625 6.6328125 C24.20038567 16.07046196 34.00750747 30.76262019 37.4375 46.375 C39.96880571 65.27541597 37.23243614 84.15053432 25.68359375 99.78173828 C20.59015326 106.06328543 14.80053179 111.59887611 8 116 C7.26652344 116.51046875 6.53304687 117.0209375 5.77734375 117.546875 C-8.7397638 127.08331638 -27.16796533 129.01387816 -43.9375 125.625 C-47.3827284 124.89542222 -50.56050745 124.18164879 -53.81640625 122.8359375 C-61.45145235 120.83115239 -69.97853218 123.44141838 -77.5625 125 C-78.46291016 125.17789063 -79.36332031 125.35578125 -80.29101562 125.5390625 C-84.47884515 126.07113725 -84.47884515 126.07113725 -88 128 C-90.33297433 128.04092937 -92.66705225 128.04241723 -95 128 C-95.13826458 123.07903797 -94.68067549 118.74030086 -93.625 113.9375 C-93.35481961 112.61888788 -93.08663631 111.2998652 -92.8203125 109.98046875 C-92.29689753 107.4139865 -91.74686534 104.85848324 -91.1796875 102.30078125 C-89.72996803 94.7272468 -89.96447189 90.10788356 -93.73828125 83.3046875 C-97.08559944 77.19039112 -96.2953598 70.09850762 -96.35009766 63.31323242 C-96.36652272 61.82869645 -96.39363142 60.34423503 -96.43212891 58.86010742 C-96.89753697 40.77192203 -90.68581722 26.5094383 -78.30126953 13.26293945 C-69.70902855 4.41307516 -60.42707036 0.10104858 -49 -4 C-48.11441406 -4.37511719 -47.22882812 -4.75023437 -46.31640625 -5.13671875 C-31.02188553 -9.11797797 -14.06552294 -6.71236231 0 0 Z M-68.4375 22.75 C-80.04438191 35.2159439 -83.67673446 48.23426242 -83.22265625 64.8125 C-82.89501982 72.25429234 -81.55818539 81.44181461 -76 87 C-76.13056324 93.92989486 -76.89717646 100.4111529 -79 107 C-79 108.32 -79 109.64 -79 111 C-78.03344482 110.78682129 -78.03344482 110.78682129 -77.04736328 110.56933594 C-74.07883828 109.93257802 -71.1029178 109.34120427 -68.125 108.75 C-67.11179687 108.52570313 -66.09859375 108.30140625 -65.0546875 108.0703125 C-57.36948598 106.59238913 -52.95688185 107.69322239 -46 111 C-36.19267807 113.88272772 -27.91925077 114.4524953 -18 112 C-16.89527344 111.73960938 -15.79054688 111.47921875 -14.65234375 111.2109375 C-6.93576404 109.13513243 -1.21990349 105.95772929 5 101 C6.546875 99.9171875 6.546875 99.9171875 8.125 98.8125 C16.63645123 91.43752096 21.44034 80.27841332 23.75 69.5 C24.96770721 52.45209906 22.05357515 38.55347725 11.06640625 25.3203125 C1.33566931 14.39392735 -10.64940619 8.56800253 -25.125 7.125 C-42.10197749 6.35565057 -55.94425288 11.0481803 -68.4375 22.75 Z " fill="#25D366" transform="translate(96,6)"/>
<path d="M0 0 C5.61 0 11.22 0 17 0 C20.62245227 7.49763376 23.71654799 14.77885278 26.24487305 22.68945312 C27.57345307 26.81687275 29.12747215 30.70087175 30.96484375 34.62109375 C32.80341404 38.84633642 34.24868088 43.21749683 35.75390625 47.5703125 C37.03571558 51.09830181 38.52137241 54.54986896 40 58 C40.33 44.8 40.66 31.6 41 18 C47 18 53 18 59 18 C59.60328125 17.67902344 60.2065625 17.35804687 60.828125 17.02734375 C65.24873389 14.93630034 70.24374109 15.39632099 75 16 C81.67588522 18.70265676 86.6769318 23.67034629 90 30 C92.14432196 36.43296589 92.36472142 46.5999514 89.875 53 C85.77833452 59.55466477 81.61360759 64.64771539 74 67 C66.77712348 68.22700354 64.03163832 66.51581916 57 63 C57 68.94 57 74.88 57 81 C51.72 81 46.44 81 41 81 C41 76.05 41 71.1 41 66 C35.72 66 30.44 66 25 66 C24.54625 64.7625 24.0925 63.525 23.625 62.25 C22.77843078 59.97509597 21.92254976 57.84917585 20.8125 55.6875 C20 54 20 54 20 51 C12.41 51 4.82 51 -3 51 C-3.33 53.31 -3.66 55.62 -4 58 C-5.12866651 60.82393268 -6.54165466 63.31852631 -8 66 C-13.28 66 -18.56 66 -24 66 C-23.19903251 61.19419504 -22.10949611 57.16419432 -20.375 52.6875 C-20.11138672 51.99527344 -19.84777344 51.30304688 -19.57617188 50.58984375 C-17.35613878 44.80839926 -14.99422818 39.08804063 -12.61352539 33.37133789 C-8.05633046 22.38342056 -4.03953073 11.18639279 0 0 Z M8 20 C7.18563413 22.41605225 6.37344603 24.83279998 5.5625 27.25 C5.33240234 27.93191406 5.10230469 28.61382812 4.86523438 29.31640625 C3.78823044 32.5318093 2.82314853 35.70740587 2 39 C6.62 39 11.24 39 16 39 C13.69 32.73 11.38 26.46 9 20 C8.67 20 8.34 20 8 20 Z M59.125 30.25 C55.43901064 35.02010387 55.45762975 40.14240134 56 46 C56.88187839 49.68027989 57.9993791 52.3329194 61.25 54.5 C64.8444889 55.15354344 67.45839345 54.90149985 71 54 C73.86942113 51.73466753 74.83907612 50.48277163 76 47 C76.57818342 40.63998239 76.24363834 35.56052287 73 30 C70.53479624 27.9750112 68.76420542 27.96998978 65.5625 27.5625 C61.8671691 27.70548407 61.8671691 27.70548407 59.125 30.25 Z " fill="#25D366" transform="translate(438,33)"/>
<path d="M0 0 C5.28 0 10.56 0 16 0 C18.09387144 4.88570002 19.50585308 8.49757177 20.5703125 13.51953125 C20.82683594 14.70611328 21.08335937 15.89269531 21.34765625 17.11523438 C21.60417969 18.33533203 21.86070312 19.55542969 22.125 20.8125 C22.64618642 23.25699145 23.16951225 25.70102806 23.6953125 28.14453125 C23.92234863 29.22065674 24.14938477 30.29678223 24.38330078 31.40551758 C24.8874138 33.96503757 24.8874138 33.96503757 26 36 C28.818755 26.12280521 31.51188068 16.24957195 33.74316406 6.22094727 C34.89908199 1.10091801 34.89908199 1.10091801 36 0 C38.53049402 -0.07313567 41.03304837 -0.09247527 43.5625 -0.0625 C44.62887695 -0.05573242 44.62887695 -0.05573242 45.71679688 -0.04882812 C47.47790013 -0.03700864 49.23896036 -0.01907263 51 0 C53.14537774 4.7166566 54.66961196 9.1701809 55.82421875 14.24609375 C55.97534622 14.90207047 56.12647369 15.55804718 56.28218079 16.23390198 C56.75680286 18.30041267 57.2223012 20.36885 57.6875 22.4375 C58.01046283 23.8510498 58.33402526 25.26446274 58.65820312 26.67773438 C59.44572998 30.11693721 60.22509661 33.55792811 61 37 C63.6998831 28.65291069 65.9359909 20.34422149 67.6875 11.75 C68.10476694 9.72327488 68.52516007 7.69718995 68.94921875 5.671875 C69.12799561 4.7962793 69.30677246 3.92068359 69.4909668 3.01855469 C70 1 70 1 71 0 C73.69654854 -0.07319621 76.36691458 -0.09242537 79.0625 -0.0625 C79.82111328 -0.05798828 80.57972656 -0.05347656 81.36132812 -0.04882812 C83.24091871 -0.0370068 85.12046899 -0.01907078 87 0 C85.74713297 7.46390793 84.14241065 14.7526971 82.1875 22.0625 C81.92469238 23.05693115 81.66188477 24.0513623 81.39111328 25.07592773 C77.75895644 38.76392014 73.90951829 52.38908447 70 66 C64.72 66 59.44 66 54 66 C51.07154588 58.79804598 49.47060977 51.5527129 47.89453125 43.95703125 C47.69214844 43.01988281 47.48976562 42.08273438 47.28125 41.1171875 C47.10658203 40.27784668 46.93191406 39.43850586 46.75195312 38.57373047 C45.85379983 35.4995967 44.49646981 32.82466396 43 30 C42.69763428 31.31605225 42.69763428 31.31605225 42.38916016 32.65869141 C41.63481593 35.93560433 40.87785051 39.21188924 40.11914062 42.48779297 C39.79225281 43.90161508 39.46638997 45.3156746 39.14160156 46.72998047 C38.67266431 48.77115212 38.19996074 50.81142144 37.7265625 52.8515625 C37.44377441 54.07697754 37.16098633 55.30239258 36.86962891 56.56494141 C36.06286717 59.75167293 35.039525 62.88142499 34 66 C28.39 66 22.78 66 17 66 C16.60167969 64.37191406 16.20335937 62.74382812 15.79296875 61.06640625 C15.25800377 58.89839029 14.72283679 56.73042418 14.1875 54.5625 C13.92646484 53.49322266 13.66542969 52.42394531 13.39648438 51.32226562 C12.05180938 45.89376287 10.57500657 40.59610506 8.74780273 35.31225586 C7.22737302 30.61098593 6.11265081 25.79677926 4.9375 21 C4.68162109 19.97132812 4.42574219 18.94265625 4.16210938 17.8828125 C2.69118527 11.93861535 1.30261361 5.98329699 0 0 Z " fill="#25D366" transform="translate(155,33)"/>
<path d="M0 0 C4.62 0 9.24 0 14 0 C14 4.95 14 9.9 14 15 C17.3 15 20.6 15 24 15 C24.495 18.465 24.495 18.465 25 22 C25.495 21.2575 25.99 20.515 26.5 19.75 C30.81529565 15.00317478 34.70395751 13.09808515 40.984375 12.578125 C49.16969485 12.19133815 56.57410143 12.2663528 63 18 C66.64106372 22.27824987 67.03862523 24.23175136 68 30 C63.05 30 58.1 30 53 30 C52.67 28.35 52.34 26.7 52 25 C48.37 25 44.74 25 41 25 C41 26.32 41 27.64 41 29 C42.05058594 29.23074219 43.10117187 29.46148437 44.18359375 29.69921875 C52.11115799 31.51500846 59.16871725 33.36990836 66 38 C66 38.66 66 39.32 66 40 C66.66 40 67.32 40 68 40 C69.80190163 45.4057049 69.60991613 49.50062284 67.5 54.6875 C64.53217879 59.30293725 59.88064372 62.2563044 54.609375 63.6171875 C46.92116613 64.74509838 38.87937929 65.02156434 32 61 C29.52232708 59.13819224 27.22869122 57.15207996 25 55 C24.855625 56.134375 24.71125 57.26875 24.5625 58.4375 C24 62 24 62 23 63 C20.42090934 63.18145851 17.89413347 63.27820018 15.3125 63.3125 C14.60416016 63.34150391 13.89582031 63.37050781 13.16601562 63.40039062 C7.9936326 63.46247833 5.10653566 62.4000349 1 59 C-0.47905238 56.04189524 -0.12190903 53.0452845 -0.09765625 49.8046875 C-0.0962413 49.09724396 -0.09482635 48.38980042 -0.09336853 47.66091919 C-0.087766 45.39890331 -0.07521318 43.13698602 -0.0625 40.875 C-0.05748532 39.34244935 -0.05292236 37.80989714 -0.04882812 36.27734375 C-0.03779577 32.51819112 -0.02052952 28.75911228 0 25 C-2.64 25 -5.28 25 -8 25 C-8 21.7 -8 18.4 -8 15 C-5.36 15 -2.72 15 0 15 C0 10.05 0 5.1 0 0 Z M18.4375 24.5 C17.61121094 24.5928125 16.78492188 24.685625 15.93359375 24.78125 C14.97646484 24.88953125 14.97646484 24.88953125 14 25 C13.97113016 28.97915159 13.95324594 32.95827653 13.9375 36.9375 C13.92912109 38.07380859 13.92074219 39.21011719 13.91210938 40.38085938 C13.90888672 41.46044922 13.90566406 42.54003906 13.90234375 43.65234375 C13.89710693 44.65257568 13.89187012 45.65280762 13.88647461 46.68334961 C13.73818905 48.96207228 13.73818905 48.96207228 15 50 C17.67058851 50.14115161 20.32432238 50.04247107 23 50 C23 48.68 23 47.36 23 46 C27.95 46 32.9 46 38 46 C38.33 47.65 38.66 49.3 39 51 C43.04026853 53.6142914 46.44010239 52.94639384 51 52 C51.66 51.67 52.32 51.34 53 51 C53 49.35 53 47.7 53 46 C48.31793177 44.40538256 43.63967588 42.89251689 38.875 41.5625 C33.23346493 39.88409938 28.36757964 38.05136946 25 33 C24.5859375 30.73828125 24.5859375 30.73828125 24.375 28.3125 C24.30023438 27.50425781 24.22546875 26.69601563 24.1484375 25.86328125 C24.09945312 25.24839844 24.05046875 24.63351563 24 24 C22.13734868 24 20.28629676 24.29168487 18.4375 24.5 Z " fill="#25D366" transform="translate(348,36)"/>
<path d="M0 0 C5.78912388 3.167144 9.58783068 6.7971092 12.17578125 12.9296875 C12.88543117 16.76736709 12.92163036 20.4730184 12.86328125 24.3671875 C12.89099609 25.35267578 12.91871094 26.33816406 12.94726562 27.35351562 C12.92315759 34.62932045 11.11102806 39.52152827 6.17578125 44.9296875 C0.71453354 49.10042495 -5.00943017 50.66473782 -11.82421875 49.9296875 C-14.66509021 49.04429161 -17.68354561 48.07036064 -19.82421875 45.9296875 C-20.15421875 51.8696875 -20.48421875 57.8096875 -20.82421875 63.9296875 C-26.10421875 63.9296875 -31.38421875 63.9296875 -36.82421875 63.9296875 C-36.82421875 43.1396875 -36.82421875 22.3496875 -36.82421875 0.9296875 C-31.87421875 0.9296875 -26.92421875 0.9296875 -21.82421875 0.9296875 C-21.49421875 1.5896875 -21.16421875 2.2496875 -20.82421875 2.9296875 C-20.08171875 2.2696875 -19.33921875 1.6096875 -18.57421875 0.9296875 C-13.01769129 -2.71350739 -6.02679187 -2.28401241 0 0 Z M-18.19921875 12.5546875 C-21.98818794 18.09241171 -22.13430654 22.85821562 -21.35546875 29.36328125 C-20.62400089 32.8969164 -19.66722066 34.68521231 -16.82421875 36.9296875 C-12.96256721 38.05307704 -10.81684016 38.3357599 -7.07421875 36.8046875 C-3.65869149 33.95841478 -2.04340223 31.89633383 -1.5390625 27.37109375 C-1.36678309 21.85066232 -1.58372183 17.61040528 -4.82421875 12.9296875 C-9.23219234 9.99103844 -13.81722164 9.55647895 -18.19921875 12.5546875 Z " fill="#25D366" transform="translate(566.82421875,50.0703125)"/>
<path d="M0 0 C4.95 0 9.9 0 15 0 C15.33 6.6 15.66 13.2 16 20 C18.31 18.68 20.62 17.36 23 16 C27.97995664 15.14185279 32.59279703 15.53093234 37.375 17.125 C41.70307705 20.21648361 45.02437653 23.60197619 46 29 C46.08363974 31.83691625 46.11621679 34.64817989 46.09765625 37.484375 C46.0962413 38.29996887 46.09482635 39.11556274 46.09336853 39.95587158 C46.08778303 42.55395212 46.07523321 45.15194563 46.0625 47.75 C46.05748312 49.51432167 46.05292054 51.27864469 46.04882812 53.04296875 C46.03781835 57.36201256 46.02056369 61.68099154 46 66 C41.05 66 36.1 66 31 66 C30.95101563 63.82019531 30.90203125 61.64039063 30.8515625 59.39453125 C30.79748309 57.27296348 30.74020312 55.15150445 30.68261719 53.0300293 C30.64444048 51.56071138 30.60956818 50.09130361 30.578125 48.62182617 C30.53222711 46.50406886 30.47427628 44.3869241 30.4140625 42.26953125 C30.36693115 40.36071167 30.36693115 40.36071167 30.31884766 38.41333008 C30.01434915 35.15361062 29.56817066 32.86432531 28 30 C24.05525663 28.77274651 20.96209657 28.95120973 17 30 C15.82874626 33.7513465 15.77940135 37.49631612 15.68359375 41.390625 C15.66281265 42.09523865 15.64203156 42.79985229 15.62062073 43.52581787 C15.55546163 45.76711681 15.49639752 48.00852864 15.4375 50.25 C15.39428274 51.77344897 15.35066743 53.29688671 15.30664062 54.8203125 C15.19906885 58.54676119 15.0997465 62.2733008 15 66 C10.05 66 5.1 66 0 66 C0 44.22 0 22.44 0 0 Z " fill="#25D366" transform="translate(243,33)"/>
<path d="M0 0 C6.78392976 4.7886563 6.78392976 4.7886563 7.76538086 8.3425293 C8.32079933 12.16813865 8.42161142 15.9738444 8.50390625 19.83203125 C8.52468735 20.64621017 8.54546844 21.4603891 8.56687927 22.29924011 C8.63199463 24.88691179 8.69108208 27.47468053 8.75 30.0625 C8.79322142 31.82227545 8.83683685 33.58204128 8.88085938 35.34179688 C8.9876368 39.64443309 9.08901018 43.94716643 9.1875 48.25 C6.72851345 48.33076963 4.27216258 48.39037143 1.8125 48.4375 C1.11382812 48.46263672 0.41515625 48.48777344 -0.3046875 48.51367188 C-2.3359375 48.54296875 -2.3359375 48.54296875 -5.8125 48.25 C-6.4725 47.26 -7.1325 46.27 -7.8125 45.25 C-8.369375 45.724375 -8.92625 46.19875 -9.5 46.6875 C-14.27495185 49.91381882 -20.21617823 49.77886202 -25.8125 49.25 C-31.05096322 47.59115331 -34.21018594 45.38206613 -37.8125 41.25 C-39.04939062 38.77621876 -38.94560087 37.07084683 -38.9375 34.3125 C-38.94007813 33.43722656 -38.94265625 32.56195313 -38.9453125 31.66015625 C-38.8125 29.25 -38.8125 29.25 -37.8125 26.25 C-37.1525 26.25 -36.4925 26.25 -35.8125 26.25 C-35.4825 25.26 -35.1525 24.27 -34.8125 23.25 C-29.90008982 20.14454324 -24.67846229 19.16090358 -19.0625 18.0625 C-18.20011719 17.88525391 -17.33773438 17.70800781 -16.44921875 17.52539062 C-10.15597852 16.25 -10.15597852 16.25 -7.8125 16.25 C-8.15694881 13.77733235 -8.15694881 13.77733235 -8.8125 11.25 C-11.05762262 10.12743869 -12.32706649 10.11586238 -14.8125 10.125 C-15.51375 10.12242188 -16.215 10.11984375 -16.9375 10.1171875 C-18.90403775 10.13622764 -18.90403775 10.13622764 -20.8125 11.25 C-21.1425 12.57 -21.4725 13.89 -21.8125 15.25 C-27.0925 15.25 -32.3725 15.25 -37.8125 15.25 C-36.62570236 8.12921413 -34.71668117 5.13790842 -29.01171875 0.91796875 C-21.11832763 -3.41956462 -8.18684638 -3.87797987 0 0 Z M-15.25 27.4375 C-16.42433594 27.65792969 -17.59867187 27.87835938 -18.80859375 28.10546875 C-21.97309838 28.96763293 -21.97309838 28.96763293 -23.34765625 31.67578125 C-24.16112159 34.47860762 -24.16112159 34.47860762 -21.8125 37.25 C-16.2094233 38.53894643 -16.2094233 38.53894643 -10.875 36.9375 C-8.72269125 35.41126242 -8.72269125 35.41126242 -7.8125 33.25 C-7.77227609 30.9170134 -7.76929753 28.58293334 -7.8125 26.25 C-10.29715891 26.25 -12.83045586 26.95783134 -15.25 27.4375 Z " fill="#25D366" transform="translate(330.8125,50.75)"/>
<path d="M0 0 C2.47446191 2.2981489 3.68948523 4.92003532 5 8 C5.51240234 9.16789062 5.51240234 9.16789062 6.03515625 10.359375 C7.36511244 13.79077711 8.18383144 16.10126852 7.4375 19.75 C5.79479005 22.32119818 3.91873485 24.63002893 2 27 C8.12166732 36.49095709 14.00531421 41.74776945 24 47 C24.928125 46.236875 25.85625 45.47375 26.8125 44.6875 C27.33457031 44.25824219 27.85664062 43.82898438 28.39453125 43.38671875 C30.00903269 41.99219804 31.50995992 40.52583683 33 39 C39.51819877 40.89536276 45.17814801 43.5178994 51 47 C51.6185567 54.88659794 51.6185567 54.88659794 49.4375 58.8125 C43.79228438 63.87871915 39.60695976 65.75073983 32.02734375 65.44921875 C17.76127085 63.33231761 3.82155085 54.43458904 -5.1640625 43.32421875 C-7.18182667 40.59230209 -9.10861148 37.8205641 -11 35 C-11.50789063 34.27425781 -12.01578125 33.54851562 -12.5390625 32.80078125 C-16.96696756 26.21071202 -18.70660843 20.10222095 -17.54296875 12.17578125 C-16.44595135 7.77981944 -14.29040083 4.48157132 -11.3125 1.0625 C-7.53143437 -0.67474637 -4.04173429 -1.11346526 0 0 Z " fill="#25D366" transform="translate(49,34)"/>
</svg>
